<?xml version="1.0" encoding="UTF-8"?>
<svg id="Layer_1" data-name="Layer 1" xmlns="http://www.w3.org/2000/svg" viewBox="0 0 93.06 92.89">
  <defs>
    <style>
      .cls-1 {
        fill: #00483a;
      }
    </style>
  </defs>
  <path class="cls-1" d="m46.34,0C20.74,0,0,20.75,0,46.37c0,25.59,20.74,46.51,46.34,46.52,25.8,0,46.71-20.92,46.71-46.52,0-12.81-5.24-24.41-13.69-32.8C70.92,5.18,59.24,0,46.34,0Zm-7.51,90.28c-.17-.51.4-1.13.1-1.89,0-.18,2.31.17,2.82,1.05.37.54-.35-2.65.17-3.34.72.52,1.97,1.77,2.85,1.77.68,0,.88-1.25,1.22-1.97q.34-.35.54-.88c1.05.71,2.11,1.6,2.28,3.02,1.6-.89,3.54-1.94,3.36-1.77.17.35.17.71,0,2.65,1.06-.37,2.31-1.05,2.99-.18.37.51.31.96.24,1.29-2.93.6-5.97.92-9.07.92-2.57,0-5.06-.27-7.51-.69Zm41.91-15.4c-.12-.46-.96-.69-.3-1.67.34-1.06,1.6,1.05,1.6-1.06.17-1.24-.17-2.81-.36-3.9-.18-1.77,1.76-3.17.71-4.93-.71-.17-1.76.7-2.99.17.89-.7,1.4-1.59,1.77-2.99.52-2.65,3.71-.88,3.71.69,1.42-.88,1.42-1.57,1.42-2.83-.19-.88-.19-1.23-1.42-1.4,1.23-1.42,1.76-2.65.7-4.62-.16-.34-.36-.87-.7-1.05-.71-.34-1.77-.17-2.11-.51-.37-.2-.2-1.6,0-1.76.51-1.6,3-3.02,4.41-1.25,1.57,1.93-2.65,6.72,2.46,7.78v-.18c.36-.71-.89-1.25-.35-2.47.35-.35.71-1.06.35-1.6.36-.17,1.08-1.05.54-1.6-.54-.68-1.43-.51-1.6-1.05-.17-.72,0-1.4.17-1.93h0c.37-1.06.54-1.93-.34-2.99-.54-.54-1.23-.37-1.94-.2.35-.51-.37-2.45-1.42-1.94-1.06.72-1.4,1.77-2.65,2.65-1.05.87-1.59,1.59-1.76,2.48h0c-.17.88,0,1.59.17,2.64-.51,1.06-1.4.89-1.05,2.99,2.82-.17,4.78.2,4.24,4.42-.17.37-2.3,1.42-2.99,1.08.17-.54.17-1.77-.37-2.84-2.28-3-3.53-4.58-1.77-8.12h0c.37-.88.88-1.59,1.59-2.64,1.05-1.6-6.01-5.3-6.52-5.47-.71-.34-1.77-.71-2.65-.71-.37,0-.71.37-.88.54-2.14,1.06-3.91,2.65-4.42,5.3-.2.51,2.99-2.13,2.99-2.13,1.77-1.05,3.53-1.77,5.84.54-.37.53-.72.7-.89,1.05-1.42-1.05-2.13-1.6-3.9-.89-.71.17-1.05.72-1.22,1.05-1.59.89-2.31,2.13-3.53,3.19h0l-.18.17c-.88.54-1.59.17-2.13,1.05-.34,1.09.54,1.6.54,2.31.17,1.23-.54,2.1-.54,3.36.17.72.54,1.77.54,2.48-.17,1.57-.88,2.45-.17,3.87.88-.33,1.76-1.05,2.45-1.59,1.97-1.76-.34-1.76-.34-3.36-.17-.89.34-.52,1.42-.89.17-1.77-1.25-2.28-.37-4.04v-.37c.18,0,.18-.34.18-.34.36-.54,1.24-.34,1.76-.71.71-.17,1.76-.88,2.47-1.22.71-.37,1.41-.54,1.93-.71h.01c.37-.18.54-.18.71-.34,1.06-.72,1.77-1.59,2.65-2.31.71-.88,1.06-.17,1.59.17-.71.71-1.22,1.59-1.59,2.48h0c-.89,1.93-.52,3.87.71,5.63,1.05,1.77,2.65,3.73,2.65,6.18.17,1.26-.18,2.66-.55,3.54,0,0-.51-.17-.68-.34,1.23-3,.17-5.65-1.76-8.12-3.02-3.18-1.25-4.58-2.48-6.18-.54-.54-.54-.17-1.59.17-.18.18.17,0-.71.34-1.05.55-1.4.72-2.29,1.42-.2.18-.71.34-.88.54-.2.34-.2.68-.2,1.05.54,1.4,1.25,1.77,2.31,2.28.34.37.53.72,1.05.88.53.2.88.2,1.42.71.34.18.88.89,1.06,1.43.17,1.93-.72,5.47,1.22,7.95.2.17.88.71,1.08.87.69.35,1.93.35,2.28,1.24.17.71,0,1.25.17,2.31,0,1.05.55,1.94.37,3.16-.37,1.42-1.94,2.13-1.59,4.24,0,.17.71.71.34.71l.48.48c-.21.21-.39.44-.6.66-2.14,2.13-4.5,4.03-7.03,5.7.15-.94.46-2.29.46-2.96-.89-.18-2.48-.18-3.53-.18-.17,0,.88-2.28.51-3.16-1.4-.54-4.59,0-4.42.17.2-.54.54-2.65.2-3.54l-1.6.53-.88.19c-2.13.69-4.79,1.23-6.72,3.88-1.05,1.42-1.4,1.93,0,1.05,1.6-.88,2.82-.7,5.13-1.05,0,1.93-.72,2.48-1.23,3.88,1.94-.88,2.45-1.22,5.3-1.77.34,3.36-.71,3.02-1.08,4.07,4.26-1.13,5.6-1.77,3.98,1.17-2.18,1.14-4.46,2.1-6.83,2.88-.68-.34-1.03-.53-1.73-.85.17-.54,0-.89-.17-1.6,0-.54.17-.72.34-1.05-1.06.17-2.65.34-4.05.51,0-.34,0-.88-.17-1.23,0-.88-.71-1.24-.54-2.13-1.22.2-2.99.89-4.24,1.59-.34-1.22-2.11-1.94-3.16-2.81-.88.88-1.6,1.76-2.31,2.65-.89-.54-1.94-.72-3.19-1.23-.34-.2-.52-.54-1.06-.88.17,1.57-.71,2.28-.51,3.7-1.42-.54-2.65-1.25-4.24-1.05,0,.34.17.51.17.88.17.88-.17,1.76,0,2.45,0,0,.34.2.34.37-1.03.17-2.04.35-2.76.86-2.17-.69-4.24-1.57-6.25-2.57-.14-.27-.21-.56-.34-.93-.17-.54-.37-1.42-.37-1.94,1.25-.19,2.85,1.94,4.41,1.4-.68-1.05-.51-2.65-.51-4.05,1.6-.2,3.36,1.57,5.3,1.05-.37-1.59-1.05-3.19-1.05-3.36,1.22,0,2.99,1.23,3.7,1.05.52,0,1.23-.17,0-1.05-1.24-3.53-4.42-2.31-6.89-4.24-.71,1.05-.88,2.31-.88,3.7-.72-.17-1.23-.51-1.77-.51-.88,0-1.76.51-2.82-.17-.17.88-.17,2.45,0,3.33-.71,0-1.59-.34-2.3-.18-.51.18-1.4.37-1.94,0-.15,1.1.35,2.16.6,3.12-2.5-1.67-4.84-3.56-6.95-5.69-.04-.04-.06-.08-.1-.11.28-.37.66-.83.81-1.19.34-1.42.17.89.51,1.4.71-1.05,1.93-3.16,1.59-4.41-.17-.69-2.11-1.77-2.65-1.95-.34-.17-.72,0-.88-.34-.55-.71-.55-2.13-.72-3.19,1.42-.17,2.65-.17,2.82-1.76.2-.18.54-.18.89-.35,1.24-.54,1.42-3.36.36-4.24.17-.54.35-1.05.35-1.6-.17-.51-.35-.88-.35-1.23.17-1.59,4.41-3.53,3.88.35-.17,1.42-2.48,3.19-2.11,4.07.35.34.88.51,1.23.51,2.13.87,2.3,1.24,2.82,2.3.54,1.06.88-1.06,1.42-1.22,1.23-.37.34,1.4.54,1.76,0,.89,2.11,2.12,2.99,2.29.17-.71.34-1.77.34-2.29.2-.36.89,1.77,1.25,1.77.71-1.59.17-4.61-1.94-4.96-1.08-.17-1.96.17-3.02-.17-.71,0-1.4-.72-2.11-.89,0-1.25,1.23-1.59,1.4-2.81.2-.72-.17-1.43-.34-2.14.72-2.28.72-3.53-2.82-2.82-.54.17-.71.34-1.26.17,0-.51,3.37-1.77,4.08-2.28.54-.54,1.42-2.31.54-3.19-1.08-.88-5.83-1.42-7.26-.34-.69.34-1.4,4.22-1.57,5.1-.2,0-.54.37-.54.54v.89c-.17.17-.72.53-.72.71-.71,2.47-1.05,4.59-.51,6.89.35.51.35,1.22,0,.69-3.9-5.11,3.33-11.65,2.11-17.12h0c-.17-.72-.34-1.23-.71-1.77-.51-.71.37-1.59,1.05-.17.19.51.2,1.39.54,1.93h0c0,.34.17.54.54.54,1.57.34,2.28,0,2.99-.54h0c.34-.18.71-.54,1.05-.72.37-.51.54.17.54.72h0v.88c.72,0,1.6-.34,2.28-.34s2.31,1.23,2.65,1.77c.2.34.2.68,0,1.05-.34.35-1.94,3.16-1.22,3.36.34,0,1.59.17,1.42.69-.2.89-1.6.71-1.77,1.43-.37,1.05,1.23,3.18,1.77,3.53.17-.72.35-1.6.51-2.11h.17c.37.69.37,1.4.19,2.28.89,0,1.94-1.94,1.94-2.65v-.89c-.54-.51-.54-1.05-.71-1.94,0-1.59,1.05-5.29.16-6.18-.34-.34-.88-.71-1.4-.88-.19-.18-.36-.34-.53-.34-.55-.37-1.06-1.26-1.77-1.59-.18-.18-.54-.18-.72-.37-.17-.17-.34-.69-.71-.89-2.28-2.45-3.87-.51-6.18,0-.34-1.05-.17-1.22.55-1.76.53-.34,2.99-1.77,3.35-1.77.18,0,.52.2.72.37,1.76.71,2.28,1.95,3.53,3.16.51.37.88.89,1.57.89,0,0,1.25-.17,1.08-.51-.37-.71-1.08-1.25-1.25-1.94-.35-1.08-.35-1.77-.88-2.85-1.05-2.1-2.65-2.1-3.7-1.77-3.71,1.25-6.72,2.65-10.43,6.18-.51.72.88,1.77.88,2.65v.54h0c.37,2.47-.52,4.24-1.23,6.01-.17,1.23-.37,2.65-.88,3.71-.37.7-1.25,1.22-2.14,1.42-5.3.88-1.4-6.37-.68-7.95.34-.88,1.05-1.97,1.23-3.02v-.17h0c.88-3.71-.89-6.01-3.19-7.61-1.23-.87-2.11-1.22-2.82-2.81,0,.71-.17,1.59-.17,2.13,0,2.29,1.22,3.7,2.1,5.1-1.77-.17-3.16,1.26-3.34,3.19h0v.54c.6-.18,1.33-.44,2-.54h.31c.57-.02,1.08.07,1.39.54.17.34.51.87.51,1.4-.17,3.19-3.17,5.3-2.65,8.66.37,2.11,2.14,1.94,2.85,3,.51.54.35,2.3.17,3.18,1.77-.34,2.28-2.64,3.71-3.54.17,0,.17.35.17.54.17,1.94,1.25,2.45,1.77,3.88-.51.34-2.28.7-2.48,1.42-.34.88,1.08,3.87,1.25,4.93.17.54-.17,1.05,0,1.77.17.54.71.54,1.4.54.42.67.3,1.56-.18,2.26-6.64-7.8-10.68-17.9-10.68-28.92,0-12.29,4.97-23.4,13.01-31.44C22.97,6.89,34.07,1.92,46.34,1.92s23.56,4.97,31.68,13.02c8.11,8.05,13.11,19.15,13.11,31.44,0,10.82-3.91,20.76-10.39,28.51Z"/>
  <path class="cls-1" d="m42.81,49.9c.71-1.08,1.77-2.31,3.02-3.19h0c1.22-1.06,2.48-2.12,3.7-2.65.54-.17,2.65-1.06,2.82-1.6.17-.71-2.65-4.42-2.99-4.42h-.37l-14.3.88c3.7,1.94,5.83,3.19,7.78,5.47.34-.34.54-.69,1.22-1.57-.51-.88-1.77-1.96-4.04-3.19,2.99.54,4.76,1.22,8.46.17.2.17,1.25,1.76,1.08,1.76-2.48,1.25-4.42,2.83-6.38,4.79-1.05-1.08-4.59-5.3-5.64-3.9-.34.17-.34.54-.54.72.88.71,2.3,1.6,3.89,3.53h0c.72.88,1.6,1.93,2.29,3.19Z"/>
  <path class="cls-1" d="m57.65,57.85c-1.59-.37-3.7-.37-5.47,0v.88s.71-.2,1.06-.2c0,0-.35,1.42-.35,1.6l.72.37c.35-.37.35-1.77.35-1.97.17,0,.54-.17.54-.17v3.02h1.05l-.17-3.02c.35.17.69.17.88.17,0,.72.17,1.42.52,1.97l.71-.37c-.17-.34-.34-.88-.54-1.6l.54.2.17-.88Z"/>
  <path class="cls-1" d="m50.59,50.58c0,.72,1.25.72.88.72-.34,0-.34.18-.71.18.2.71.71.87,1.25.87h-.88c.34.55.71.89,1.23.89-.17-.18-.52,0-.89,0,.54.37.72.88,1.26.72.34.71.51,1.05.51,1.76l-.88-.17-.35,1.05c1.94.37,4.05.37,5.81.17l-.17-1.05h-.88c0-.71.17-1.23.37-1.76.51,0,.88-.35,1.23-.72,0,0-.54-.18-.88-.18.71,0,.88-.16,1.23-.87h-.88c.54-.18,1.08-.18,1.25-.71-.36-.18-.36-.35-.71-.35.34,0,.88-.17,1.05-.7-.51,0-.51-.18-1.05,0,.54-.18.88-.35,1.05-.89-.17,0-.35,0-.71.17.36-.34.36-.88.2-1.22-.49.15-.81.61-.72,1.09-.03-.21-.13-.6-.53-.75-.34.88,0,.88.17,1.42-.17-.54-.34-.34-.69-.54-.2.2,0,.88.34,1.08-.17-.2-.54-.2-.71-.36-.17.5-.15.99.14,1.35-.12-.1-.26-.21-.48-.3-.37.71-.17.87.35,1.42-.17-.18-.52-.35-.72-.35,0,.35,0,.88.54,1.05-.34.72-.34,1.4-.54,2.11h-.52l-.17-2.81c.69,0,.69-.72.88-1.06-.2,0-.54,0-.88.17.51-.17.88-.71.88-1.22-.54,0-.88.34-.88.34.35-.34.88-.54.88-1.42-.28.15-.46.11-.67.15.27-.1.67-.38.67-1.03-.37,0-.37-.17-.88.2.35-.37.88-.37.51-1.25-.35.11-.55.4-.64.57.12-.27.3-.88-.24-1.29-.51.54-.51.72-.34,1.08,0,.18-.54-.36-.54-.36-.35.36.17,1.25.36,1.25h-.71c.17.51.51.68.71.88-.2-.2-.54,0-.71-.2-.14.72.18.98.6,1.24-.26-.09-.6-.16-.6-.16.17.88.35,1.05.88,1.22-.17-.17-.71-.17-.88-.17.17.35.17,1.06.88,1.06l-.17,2.81h-.54s-.35-2.11-.71-2.11c.71-.17.54-.7.71-1.25-.17,0-.71.37-.88.55.54-.35.71-.72.34-1.42-.34.19-.68.53-.68.53.51-.34.51-.88.34-1.42-.34.2-.34,0-.71.37.37-.37.53-.71.37-1.25-.37.2-.54.2-.72.54,0-.34.51-.34.17-1.22-.17.17-.35.17-.35.34,0-.34-.37-.71-.71-.88-.37.7-.17,1.22.18,1.42-.55-.2-.72-.2-.72-.2.17.54.17.72.88.88-.34,0-.51-.16-.88,0Z"/>
  <path class="cls-1" d="m62.24,67.37c.71-.17,1.59-.17,2.3-.34,1.23-.54.54-1.06,1.23-2.11.71.17.89.35,1.25.89.72,0,1.22-.54,1.94-.37,1.59,0,3.19,1.94,4.95,1.25.17,0,.35-.36.35-.71.88-3.53-3.71-4.24-2.65-8.12.17-.54.71-1.08,1.06-1.59-.88-.18-2.48-.89-3.54-.71-.89.17-1.23,3.53-1.06,4.4.34.89,1.22,1.43,1.94,2.12.17.37.54.88.72,1.42-1.43,0-6.19-1.22-7.41-.17-.37.17-.54,1.76-.71,2.1-.17.54-.37,1.25-.37,1.94Z"/>
  <path class="cls-1" d="m35.06,69.5c.35.35,1.23.35,1.4-.17,0,0,0,1.22.18.87.88-.19.88-1.08,1.08-1.25-.2.37.17,1.05.34.89.71-.35.71-.89.88-1.4.34,0,.34-.37.71-.37.17,1.26.34,1.42-.88,2.13l-.71.7c0,.53.88.36.88.36.71-.17.88-.17.71.34-.71.89.51,1.25.88,2.31.35-.53,1.77-1.58,1.23-2.13-.71-.88-.35-.69-.35-.69.35-.19.88.34,1.6,0,.88,0-.72-.72-.88-1.08-.2-.34-.37-1.22-.37-1.94.37,0,.54.18.88.37,0,.51.17,1.05.88,1.4.37.17.37-.51.37-1.06,0,.71.51,1.22.88,1.42.35.17.35-.36.51-.71.54.17.71.17,1.25,0,1.05-.37-.2-1.42-.88-1.25,0-.18.34-1.06,0-1.06-.37,0-1.08.17-1.42.72,0-.35.34-1.05,0-1.05-.54,0-1.06.17-1.23.7-.37,0-1.25,0-1.25-.37.37-.52.88-.52,1.25-1.23.17.17.17.71.51.71h.54c.88-.36.17-.88.17-1.08,1.42-.52,1.22-1.05,1.22-1.76-.88-.35-1.57,0-1.94.37-.51,0-.51-.72-.88-.37-.88.87.17,1.24-.35,1.59-.54.54-.71.71-.88.89-.17-.51-.36-1.4,0-1.6.72,0,1.06-1.22,1.06-1.76-.18-.88-.71.37-1.06.37,0-.89,1.23-.89,1.23-2.13,0-1.06-.88-.51-1.23,0l.18-.88c-.18-.35-.35-.69-.54-1.06-.34-.72-.88.37-1.06,1.25l.17.69c-.34-.51-1.23-.88-1.05.54.17.71.88.71,1.25,1.42-.19.17-.88-.37-1.08-.2-.34.37.71,2.13,1.08,1.76.17.2,0,1.42,0,1.6-.37,0-.71-.51-1.08-.72.19-.52.88-.52.19-1.22-.36-.54-.54-.17-.88-.17-.37,0-.37-.37-.71-.54-.37-.17-.71,0-1.24,0,0,.18,0,.72.19.89,0,.17.52.72.52.88-.17.37-.52.54-.17.89,1.42.88,1.23-.51,1.6,0,.71.54,1.06.88,1.06.71-.35.54-1.06.54-1.06.54-.37-.54-.89-.7-1.42-.7-.52.17.17.7.17,1.22-.17-.51-.88-1.05-1.57-.71-1.25.54.88.89-.36.89-.72.19-1.06,1.08-.52,1.25Z"/>
  <path class="cls-1" d="m38.4,8.03c.2.54,1.08,0,1.25,0,.71.37,1.22.54,1.76.18.88-.51,1.4-1.77,2.11-1.58.17-.36-1.76-2.13-2.28-1.96-.54-.17-1.25.37-1.59.71-.88.37-1.6.54-1.77.71-.37.17-.37.34-.17.34,0,.38.68,1.43.68,1.6Zm1.77-2.1c.2-.17.54-.37.54-.37.34-.17.71.2,1.06.37,0,0-.52.34-.89.51-.35.2-.88,0-.71-.51Z"/>
  <path class="cls-1" d="m35.24,18.12c.17.88-.17,1.77.17,2.66.17.34,1.42,1.39,1.76,1.56.17.2.88.54,1.05.54.37,0,.54-1.77.17-2.31,0-1.05-.68-.52-1.23-.88-.54-.35.34-.69.54-.69.34-.36-1.08-1.76-.72-1.76h1.4c.2.88.88,1.76,1.77,2.1.2.18.88,0,.88.35.2,1.25-1.4,3.53-1.57,3.89-.2.52-.2,1.4.35,2.48.17.34,1.05-.54,1.42-.89,1.05-1.07.52-1.24.17-2.29.72-.54,1.06.34,1.23-.72.37-1.59,1.05-4.05,1.42-4.41h.34c-.17.17-.88,1.94-.51,2.14,1.23.35,3.53-1.42,4.59-.71.18.17.34.71.72,1.06-1.25.87-2.48,1.59-2.65,2.1-.2.2-.2.37-.37.54,0,0,0,.17-.17.34-.17.71-.17,1.58.34,1.76.55.19,1.97-.88,2.14-1.22,0-.88-.37-.54-.37-1.23,0-.37.37-.53.55-.53,0,.71,0,.88.34.71.54-.55,1.42-1.25,2.13-2.14,1.23.54,1.76-.88,1.23-1.23-1.05-.34-2.11-1.42-2.65-2.47l.37-.34c.35.71.52,2.11,3.17,2.47.17,1.24-.17,2.83-.35,4.05,0,.54-.36.54-.53.89-.35.37-.35,1.76,0,1.93,1.25-.51,2.65-.89,2.13-1.93l-.19-.71c-.17-.51.19-.51.19-.51.69.17.35-.88.51-1.93.17-.38.37-.38.37-.54.35-.55.17-.35.35-.89,0-.17.34-.17.71-.71.35-.17-.71-1.06-1.25-1.4.88-.71,1.25-2.66.19-5.13h.35c.54.71.88,1.22.88,2.29.17,1.58-1.23,3.36.71,3.36.17,0,.52-.34.52-.51.37-.37.37-.89.54-1.42.88-3.37-.54-6.18-4.42-5.84h-1.77c-1.42.2-1.42,0-2.82.54-.54.18-2.31,0-3.7.89-.2,0-.37.35-.54.35-1.23-.18-3.71-.35-4.96-.18-.51.18-1.77.18-1.77.37-.34.34-.34,1.94-.68,2.28-.89.36-1.97.55-2.65,1.06-.36.37-.54,1.08,0,1.6,0,.17.17.88.17,1.25Z"/>
  <path class="cls-1" d="m37.52,31.16c-3.16,1.42-5.98,1.76-9.18,1.96-1.76.17-2.3-.2-2.99-1.42-.19-.54,0-.72.35-.35.71.35.88,1.22,1.77,1.4.34-3.36,2.82-5.3,4.58-7.78.54-.51,1.25-.88,1.25-1.76.51-1.57-1.6-5.11-2.31-5.98-.71.34.54,1.4-.71,1.57,0,0-.34-.17-.17-.34.34-.54.34-1.94-.34-2.12-1.08-.71-2.85-.37-4.07-.71-1.94-.54-3.19-1.77-4.25-2.82-.88.88-1.05,2.28-.88,3.53-1.6.35-4.25.89-5.47,1.94,1.23,1.23,2.65,1.95,5.13,1.76.35,1.4,1.59,2.82,2.65,1.94,1.23-1.6,5.31-2.65,7.07-1.76.51.34-.54,1.22-.88,1.59-1.25,2.11-6.35,7.57-5.13,10.42.18.34.89,1.05,1.06,1.57.17.88.37,1.25,1.6,2.13,1.23.89,9.17-1.77,10.77-3.36.37-.17.53-1.42.17-1.42Z"/>
  <path class="cls-1" d="m14.92,24.64c.51-.17,1.4.17,1.94.34.35-1.05-.35-3.33-1.94-3.15-.17,0,.17.7.17.88.34.51,0,1.22-.17,1.93Z"/>
  <path class="cls-1" d="m55.38,30.99c0-1.4.69-4.42,1.4-5.64-.52-.37-1.06-.37-1.77-.54l-.71,1.94c-1.05-.17-1.94-.52-2.83-.69l.37-1.96c-.71,0-1.76-.17-2.64-.17l-.2,1.76v.17c-1.57-.17-2.65-.17-4.22,0l-.2-1.93c-.89,0-1.57.17-2.45.17l.17,2.12c-.88,0-1.77.35-2.65.72l-.88-2.14c-.71.17-1.05.17-1.6.54.54,1.22,1.23,4.04,1.42,5.64,3.33-.88,13.25-1.06,16.78,0Z"/>
  <path class="cls-1" d="m45.66,31.53c-.37-.17-.72-.37-1.25-.17-.71,0-5.64.17-5.81.35-.2.34-.2.54-.2.88-.34.54-.88,1.06-1.23,1.77,1.94,0,2.82.54,4.59.72.88,0,1.42-.37,2.13-.54.35.17.17.17.35.54-.54.34-1.23.72-1.76.72-2.11.17-3.71-1.09-5.84-.72-1.23,1.23-2.45,2.11-3.88,3.36l15.9-1.08c-.18-.51-.35-.69-.89-1.22-1.06-1.05-1.77-2.65-2.11-4.59Z"/>
  <path class="cls-1" d="m72.15,34.69c0,1.09-.2,1.76-.54,2.48,3.36,1.06,7.95,3.19,9.88,6.35.89-.88,1.26-1.05,1.77-1.22-1.05-3.88-7.58-7.24-11.11-7.61Z"/>
  <path class="cls-1" d="m82.93,37c-.37.54-.54.34-.71.17-.72-.52.17-1.06.54-1.77v-.87c-2.31.37-4.79,0-7.06-.35-.2.17-.37.35-.37.35,0,.17-.17.54,0,.37.71-.2,7.61,3.53,8.12,5.63.2.72.88-1.22,1.08-2.1,2.11-.54,3.7-2.64,3.7-4.78,0-.72-1.06,1.76-1.94.89.88-1.23,1.57-3.36.69-4.76-.35.34-.35.51-.89.71.2-1.77-.34-2.65-1.23-3.36-.34.72,0,1.06-.34,1.77-.2.51-.54.89-.88,1.4,2.45,1.77.69,5.13-.71,6.73Z"/>
  <path class="cls-1" d="m38.4,9.8l-.17.17.17.2c0,.18.2.69.2,1.23h.17c2.11-.17,4.24-.17,6.36,0v-.17q.17-.72.34-1.25h-.17c-1.05-.34-6.01-.52-6.89-.17Z"/>
  <path class="cls-1" d="m43.53,5.56c.54.37.88.88.88,1.42-.17.17-.51,0-.88.17-1.23.37-.88,1.95-3.7,1.77-.35.54,0,.38,1.59.38.72-.2,3.53,0,3.71,0s.17-1.08.17-1.26c.71.54,1.05-.17,1.94-.51-.17-.19,0-.37-.34-.88-.35-.71-1.43,0-1.06-.2.34-.68.17-1.4-.54-1.76.17-.51-.17-1.06-.88-1.06-1.22-1.06-1.4,0-2.11-.34-1.05-.72-1.77.51-1.25.88,1.08-.37,2.3,1.06,2.47,1.4Z"/>
  <path class="cls-1" d="m77.45,26.06c.35.17.52.17.69.69-1.57-.34-1.23.2-2.28,1.08-.54.34-1.59.51-2.31.88l.37.35c.35.34,2.45-.18,3.34-.55.36-.17.54-.68,1.42-.51.88.17.71.71,2.1,1.4,0,0,.37,0,.71.2-.71,0-1.93-.2-2.11-.2,0,0-.17.2-.37.2-.68.34-1.22,0-1.76-.2-.18.2-.89.54-1.23.54-.88.34-1.94.54-2.82,0-.17-.34-.71-.88-.89-.88-.53-.18-1.25.54-1.42.88-.16.54,0,.72.37,1.06-.37,2.13,1.57.37,2.28.17.37,0,.88.2,1.26.2.51.35-.72.35-.89.51-.71.54-.71.71-1.6.89l-.17-.18c-.71.54.88,1.06,3.54,1.06.34,0,.88-.34,1.23-.51.71,0,1.59.51,2.1.69,1.42.37,2.66-.51,3.02-1.23.17-.17.17-.88.34-1.05.37-.54.71-.54.88-1.05.54-1.25-.34-1.77-.88-2.13.54-.71,1.25-1.77.71-2.99-.54-1.05-.71-.88-.88.17-.17.54-.72,1.06-.72,1.43-.34.17-.34,0-.88-.2,0-1.77-1.05-3.16-1.05-1.94,0,.54-.35,1.25-.55,1.25-.34-.37-2.1-.37-1.57,0Z"/>
  <path class="cls-1" d="m11.39,40c.87-1.91,8.36-6.18,9.95-6.33-.03-.02-.06-.03-.06-.03-.35-.34-.71-1.06-1.43-1.06-.51.34-.68,1.06-1.4,1.23-.71,0-1.42-.34-1.94,0-.88.88-1.96,2.64-3.9,2.13-.88-.54.37-1.77-.51-2.31-.37-.34.17-1.06.51-.51.88,1.4,0,1.94.88,2.12,1.25.16,2.14-1.77,3.01-2.12.88-.2,2.45.69,2.82-.72,0-.54-.37-.88-.54-1.59,0-.54.72-1.22.54-1.94,0-.54-.37-.17-.37-.71,1.25-.34,1.08-1.77,1.08-2.65-.71.18-1.08,0-1.6,0-.37.18-.54.54-.71.54-.71.17-.54-.71-1.06-.71-.37-.18-1.25,0-1.42-.18-.35-.19-.35-.37-.51-.37q-.54.17-.54.89c-.35,1.25.88.88.34,1.76-.18.37-.34,1.25-.89,1.25-.34-.2-1.05-.37-1.57-.54,0-1.22.88.17,1.57-.72.37-.34,0-.71-.17-1.05-.17-.34.17-1.6-.17-1.42-.54.19-.88.72-1.22,1.08-2.48-.37-1.6,1.77-2.13,3.54-2.11,0-3.17.51-3.88,1.93,1.22.18,1.76.88,2.82.88,0,1.77-.17,2.65.54,3.88.51-.18.69-.72,1.23-.35,1.22,1.06.54,2.29.71,4.05Zm6.18-7.95c-.17,0-.17-.52-.17-.69.69-.2.69.69.17.69Zm-1.25-3.88c.19-.17,1.25,0,1.25-.54.35,1.42-.54,1.96-1.93,1.59.17-.34.34-.72.68-1.05Zm-2.28,3.54c.18-.35,1.94-1.06,2.28-1.23.54-.2-.17.69-.17.69-1.06,1.08-2.65-.17-1.06,2.13.17.51-.88.71-.88.51-.18-.69-.35-1.4-.18-2.1Zm-1.6-1.77c.72.34,1.23-.17.17,1.23-.35.37-1.05,0-1.77,0,.54-.69.54-1.23,1.59-1.23Z"/>
  <path class="cls-1" d="m15.44,37.54c-.68.34-4.22,2.99-4.76,3.88.34.34.54.34.88.7.17.18.54,1.06.71.89,3.37-3.19,7.58-5.47,10.94-6.36,0,0-.88-2.13-.88-2.48-4.05,1.4-6.36,3-6.9,3.36Z"/>
  <path class="cls-1" d="m9.8,29.22v-1.77c-1.42,0-2.11-.34-3-.71,0,1.96,1.05,2.65,3,2.48Z"/>
  <path class="cls-1" d="m48.82,46.17h11.14v.54h0v16.44c-1.59,0-4.58,0-6.72-1.25-.88-.51-1.94-1.94-2.48-3.37-.51-1.93-.88-3.87-2.28-5.29-1.25-1.4-3.02-1.4-4.59-1.76-2.3-.69-3.36-1.05-4.95-4.59v-.17h0c-.72-1.42-2.3-2.82-3.88-2.65h-4.24v2.65h0v16.44c0,4.92,2.48,9.52,6.36,12.36v.17c2.82,1.95,6.01,3.88,9.37,5.13,3.33-1.42,6.35-3.02,9.18-5.13,2.82-2.3,4.95-5.12,5.84-8.66h-.37c-1.4-.17-8.46.17-11.12-1.6-1.25-.72-2.13-2.28-2.48-3.16-.54-1.96-1.42-4.42-2.31-5.5-1.4-1.22-3.16-1.22-4.76-1.76-2.31-.52-4.24-2.28-4.95-4.42-.17-.51-.35-.88-.52-1.22v4.76c.88,1.43,2.45,2.48,4.05,2.85,1.59.51,3.53.51,4.78,1.76.88.89,1.77,3.71,2.45,5.47.2.87,1.25,2.47,2.31,3.16,2.65,1.77,8.83,1.6,10.05,1.6-.69,1.6-1.77,3.02-2.99,4.24-2.48,1.93-5.84,4.24-9.18,5.47-3.36-1.22-6.55-3.54-9.37-5.64-2.65-2.48-4.24-6.01-4.24-9.88v-16.44h0v-.54c1.59,0,2.48.2,3.02.54h.02c.68.53.89,1.31,1.2,2.1.71,2.13,2.65,3.9,4.96,4.42,1.4.54,3.33.54,4.58,1.77,1.06,1.08,1.95,3.52,2.48,5.49.34.89,1.4,2.45,2.45,3.16,2.48,1.77,8.82,1.6,10.08,1.6,0-.72.18-1.42.18-2.11v-16.44h0v-2.65h-10.6c-1.6.72-2.49,2.1-2.49,2.1Z"/>
  <path class="cls-1" d="m21.45,33.64s-.08.02-.11.03c.09.04.24.09.11-.03Z"/>
  <path class="cls-1" d="m72.32,19.69c2.11,0,3.37-.69,4.25-1.77q.69-1.05-.54-1.4c-1.06-.55-3.36-.37-4.08-.88-.16-.17.2-.54,0-.88-.34-.89-.88-1.6-2.28-1.77-.71.88-1.76,2.28-2.82,2.65-.53.34-1.59,0-2.31.17-.88.16-1.59.16-1.94.53-.54.89-.17,2.29,0,2.83l-.17.35c-.54.37-.37-3.17-1.08-1.94-.17.34-.34.89-.51,1.42-.38.89-.89,1.77-1.06,2.83-.19.7-.37,1.4,0,2.11.17.54.68,1.05,1.06,1.42,1.76,2.28,3.7,4.92,5.47,7.06.53.51,1.22-1.25,1.42-1.59,0,.34.17.17.17.34,0,1.42-1.24,1.76-2.48,2.13-2.48.51-7.06.34-9.54-.89-.51-.17-.71-.36-1.05-.54-.71-.17-1.77-.34-2.48-.34-1.23-.37-4.05-.71-5.3,0-.88.52.17,1.77.54,2.48.35,1.24,2.48,3.17,3.87,2.83-.88,2.99,1.42,4.42,3.02,5.29.69.52.88,1.06,1.57,1.4.88.37,1.25-.88,1.42-1.4,1.23.18,2.47.72,3.71,1.24,1.59-1.6,2.65-5.47,2.13-5.47-.37,0-.88,0-1.25.17-.88.37-.72,4.25-3.17,2.82-.54-.51-.89-2.11-1.08-2.11-.34-.17-1.4-.53-1.4-.17v-.17l-.17.34c.17.54.68,4.07-.2,2.48-.52-.89-1.4-1.25-2.11-1.77-1.59-1.05,1.05-3.53,0-3.9-1.94,0-4.24-1.23-4.96-2.65,4.25.2,4.79,1.77,7.43,2.65,2.82,1.08,6.35,1.42,9.34.72.55-.18,1.6-.18,1.97-.72.68-1.4,1.05-2.65,1.4-4.05.71-2.31-3.16-6.72-4.25-7.95-.68-.87-2.45-3.01-1.05-3.35.54-.35,1.59-.35,1.59-.35,1.42-.2,4.59,2.11,4.76,2.11,1.25-.54,2.13-1.6,2.13-2.31Z"/>
</svg>