<!-- Generated by IcoMoon.io -->
<svg version="1.1" xmlns="http://www.w3.org/2000/svg" width="32" height="32" viewBox="0 0 32 32">
<title>angle-arrow-up2</title>
<path d="M2.5 24.7c0.15 0.15 0.45 0.3 0.75 0.3s0.45-0.15 0.75-0.3l11.85-12.15 11.85 12.15c0.15 0.15 0.45 0.3 0.75 0.3s0.45-0.15 0.75-0.3l1.5-1.5c0.15-0.15 0.3-0.45 0.3-0.75s-0.15-0.45-0.3-0.75l-13.95-14.4c-0.15-0.15-0.45-0.3-0.75-0.3s-0.45 0.15-0.75 0.3l-13.95 14.4c-0.15 0.15-0.3 0.45-0.3 0.75s0.15 0.45 0.3 0.75c-0.3-0.15 1.2 1.5 1.2 1.5z"></path>
</svg>
