<!-- Generated by IcoMoon.io -->
<svg version="1.1" xmlns="http://www.w3.org/2000/svg" width="32" height="32" viewBox="0 0 32 32">
<title>arrow-right-long-right-secondary</title>
<path d="M22.078 24.813c-0.373-0.373-0.373-0.746 0-1.119l6.249-6.902h-26.58c-0.497 0-0.746-0.249-0.746-0.746s0.249-0.746 0.746-0.746h26.58l-6.249-6.902c-0.373-0.373-0.373-0.746 0-1.119s0.746-0.373 1.119 0c4.912 5.409 7.399 8.145 7.461 8.207 0.124 0.124 0.187 0.311 0.187 0.56s-0.062 0.435-0.187 0.56l-7.461 8.207c-0.124 0.124-0.311 0.187-0.56 0.187s-0.435-0.062-0.56-0.187z"></path>
</svg>
