<!-- Generated by IcoMoon.io -->
<svg version="1.1" xmlns="http://www.w3.org/2000/svg" width="32" height="32" viewBox="0 0 32 32">
<title>arrow-right-long-left-secondary</title>
<path d="M9.922 7.187c0.373 0.373 0.373 0.746 0 1.119l-6.249 6.902h26.58c0.497 0 0.746 0.249 0.746 0.746s-0.249 0.746-0.746 0.746h-26.58l6.249 6.902c0.373 0.373 0.373 0.746 0 1.119s-0.746 0.373-1.119 0c-4.912-5.409-7.399-8.145-7.461-8.207-0.124-0.124-0.187-0.311-0.187-0.56s0.062-0.435 0.187-0.56l7.461-8.207c0.124-0.124 0.311-0.187 0.56-0.187s0.435 0.062 0.56 0.187z"></path>
</svg>
