<!-- Generated by IcoMoon.io -->
<svg version="1.1" xmlns="http://www.w3.org/2000/svg" width="32" height="32" viewBox="0 0 32 32">
<title>arrow-down-bold</title>
<path d="M29.858 13.809l-12.976 12.958c-0.221 0.221-0.484 0.332-0.787 0.332s-0.565-0.111-0.787-0.332l-12.976-12.958c-0.221-0.222-0.332-0.487-0.332-0.796s0.111-0.574 0.332-0.796l2.903-2.885c0.221-0.222 0.484-0.332 0.787-0.332s0.565 0.111 0.787 0.332l9.286 9.286 9.286-9.286c0.221-0.222 0.484-0.332 0.787-0.332s0.565 0.111 0.787 0.332l2.903 2.885c0.221 0.222 0.332 0.487 0.332 0.796s-0.111 0.574-0.332 0.796z"></path>
</svg>
