<!-- Generated by IcoMoon.io -->
<svg version="1.1" xmlns="http://www.w3.org/2000/svg" width="32" height="32" viewBox="0 0 32 32">
<title>arrow-right-long-down-secondary</title>
<path d="M7.187 22.078c0.373-0.373 0.746-0.373 1.119 0l6.902 6.249v-26.58c0-0.497 0.249-0.746 0.746-0.746s0.746 0.249 0.746 0.746v26.58l6.902-6.249c0.373-0.373 0.746-0.373 1.119 0s0.373 0.746 0 1.119c-5.409 4.912-8.145 7.399-8.207 7.461-0.124 0.124-0.311 0.187-0.56 0.187s-0.435-0.062-0.56-0.187l-8.207-7.461c-0.124-0.124-0.187-0.311-0.187-0.56s0.062-0.435 0.187-0.56z"></path>
</svg>
