<svg version="1.1" xmlns="http://www.w3.org/2000/svg" width="32" height="32" viewBox="0 0 32 32">
<path d="M30.535 10.412l-14.072 14.072-2.938 2.783c-0.309 0.309-0.773 0.464-1.237 0.464s-0.928-0.309-1.237-0.464l-2.783-2.783-6.804-6.958c-0.309-0.155-0.464-0.619-0.464-1.237 0-0.464 0.309-0.928 0.464-1.237l2.783-2.783c0.309-0.309 0.773-0.464 1.237-0.464s0.928 0.309 1.237 0.464l5.567 5.876 12.68-12.68c0.309-0.309 0.773-0.464 1.237-0.464s0.928 0.309 1.237 0.464l2.783 2.783c0.464 0.309 0.773 0.464 0.773 0.928s-0.309 0.928-0.464 1.237z"></path>
</svg>
