<svg version="1.1" xmlns="http://www.w3.org/2000/svg" width="32" height="32" viewBox="0 0 32 32">
<path d="M30.25 23.407c0.5 0.498 0.75 0.996 0.75 1.743s-0.25 1.245-0.75 1.743l-3.375 3.361c-0.5 0.498-1 0.747-1.75 0.747-0.625 0-1.25-0.249-1.75-0.747l-7.375-7.344-7.375 7.344c-0.5 0.498-1 0.747-1.75 0.747s-1.25-0.249-1.75-0.747l-3.375-3.485c-0.5-0.498-0.75-0.996-0.75-1.743s0.25-1.245 0.75-1.743l7.375-7.344-7.375-7.344c-0.5-0.498-0.75-0.996-0.75-1.743 0-0.622 0.25-1.245 0.75-1.743l3.375-3.361c0.5-0.498 1-0.747 1.75-0.747 0.625 0 1.25 0.249 1.75 0.747l7.375 7.344 7.375-7.344c0.5-0.498 1-0.747 1.75-0.747 0.625 0 1.25 0.249 1.75 0.747l3.375 3.361c0.5 0.498 0.75 0.996 0.75 1.743 0 0.622-0.25 1.245-0.75 1.743l-7.375 7.344 7.375 7.469z"></path>
</svg>
