<?xml version="1.0" encoding="UTF-8"?>
<svg width="26px" height="30px" viewBox="0 0 26 30" version="1.1" xmlns="http://www.w3.org/2000/svg" xmlns:xlink="http://www.w3.org/1999/xlink">
    <!-- Generator: Sketch 51.2 (57519) - http://www.bohemiancoding.com/sketch -->
    <title>file</title>
    <desc>Created with Sketch.</desc>
    <defs></defs>
    <g id="Page-1" stroke="none" stroke-width="1" fill="none" fill-rule="evenodd">
        <path d="M24.5758929,7.96875 C24.7321436,8.12500078 24.8883921,8.32589163 25.0446429,8.57142857 L17.1428571,8.57142857 L17.1428571,0.669642857 C17.3883941,0.825893638 17.5892849,0.982142076 17.7455357,1.13839286 L24.5758929,7.96875 Z M16.6071429,10.7142857 L25.7142857,10.7142857 L25.7142857,28.3928571 C25.7142857,28.8392879 25.5580373,29.2187484 25.2455357,29.53125 C24.9330342,29.8437516 24.5535737,30 24.1071429,30 L1.60714286,30 C1.16071205,30 0.781251562,29.8437516 0.46875,29.53125 C0.156248438,29.2187484 0,28.8392879 0,28.3928571 L0,1.60714286 C0,1.16071205 0.156248438,0.781251562 0.46875,0.46875 C0.781251562,0.156248437 1.16071205,0 1.60714286,0 L15,0 L15,9.10714286 C15,9.55357366 15.1562484,9.93303415 15.46875,10.2455357 C15.7812516,10.5580373 16.1607121,10.7142857 16.6071429,10.7142857 Z M19.2857143,23.0357143 L19.2857143,21.9642857 C19.2857143,21.8080349 19.2354916,21.679688 19.1350446,21.5792411 C19.0345977,21.4787941 18.9062508,21.4285714 18.75,21.4285714 L6.96428571,21.4285714 C6.80803493,21.4285714 6.679688,21.4787941 6.57924107,21.5792411 C6.47879414,21.679688 6.42857143,21.8080349 6.42857143,21.9642857 L6.42857143,23.0357143 C6.42857143,23.1919651 6.47879414,23.320312 6.57924107,23.4207589 C6.679688,23.5212059 6.80803493,23.5714286 6.96428571,23.5714286 L18.75,23.5714286 C18.9062508,23.5714286 19.0345977,23.5212059 19.1350446,23.4207589 C19.2354916,23.320312 19.2857143,23.1919651 19.2857143,23.0357143 Z M19.2857143,18.75 L19.2857143,17.6785714 C19.2857143,17.5223206 19.2354916,17.3939737 19.1350446,17.2935268 C19.0345977,17.1930799 18.9062508,17.1428571 18.75,17.1428571 L6.96428571,17.1428571 C6.80803493,17.1428571 6.679688,17.1930799 6.57924107,17.2935268 C6.47879414,17.3939737 6.42857143,17.5223206 6.42857143,17.6785714 L6.42857143,18.75 C6.42857143,18.9062508 6.47879414,19.0345977 6.57924107,19.1350446 C6.679688,19.2354916 6.80803493,19.2857143 6.96428571,19.2857143 L18.75,19.2857143 C18.9062508,19.2857143 19.0345977,19.2354916 19.1350446,19.1350446 C19.2354916,19.0345977 19.2857143,18.9062508 19.2857143,18.75 Z M19.2857143,14.4642857 L19.2857143,13.3928571 C19.2857143,13.2366064 19.2354916,13.1082594 19.1350446,13.0078125 C19.0345977,12.9073656 18.9062508,12.8571429 18.75,12.8571429 L6.96428571,12.8571429 C6.80803493,12.8571429 6.679688,12.9073656 6.57924107,13.0078125 C6.47879414,13.1082594 6.42857143,13.2366064 6.42857143,13.3928571 L6.42857143,14.4642857 C6.42857143,14.6205365 6.47879414,14.7488834 6.57924107,14.8493304 C6.679688,14.9497773 6.80803493,15 6.96428571,15 L18.75,15 C18.9062508,15 19.0345977,14.9497773 19.1350446,14.8493304 C19.2354916,14.7488834 19.2857143,14.6205365 19.2857143,14.4642857 Z" id="file" fill="#333333"></path>
    </g>
</svg>