<!-- Generated by IcoMoon.io -->
<svg version="1.1" xmlns="http://www.w3.org/2000/svg" width="32" height="32" viewBox="0 0 32 32">
<title>info</title>
<path d="M19.018 15.655c0.046-0.093 0.046-0.185 0.046-0.278v-4.128c0-0.51-0.417-0.928-0.928-0.928h-8.209c-0.51 0-0.928 0.417-0.928 0.928v4.128c0 0.51 0.417 0.928 0.928 0.928h2.458v8.626h-2.458c-0.51 0-0.928 0.417-0.928 0.928v4.128c0 0.51 0.417 0.928 0.928 0.928h11.595c0.51 0 0.928-0.417 0.928-0.928v-4.128c0-0.51-0.417-0.928-0.928-0.928h-2.458l-0.046-9.276zM12.617 1h4.87c0.51 0 0.928 0.417 0.928 0.928v4.128c0 0.51-0.417 0.928-0.928 0.928h-4.87c-0.51 0-0.928-0.417-0.928-0.928v-4.128c0-0.51 0.417-0.928 0.928-0.928z"></path>
</svg>
