<?xml version="1.0" encoding="UTF-8"?>
<svg width="32px" height="32px" viewBox="0 0 32 32" version="1.1" xmlns="http://www.w3.org/2000/svg" xmlns:xlink="http://www.w3.org/1999/xlink">
    <!-- Generator: Sketch 52.5 (67469) - http://www.bohemiancoding.com/sketch -->
    <title>Instagram</title>
    <desc>Created with Sketch.</desc>
    <g id="Instagram" stroke="none" stroke-width="1" fill="none" fill-rule="evenodd">
        <g id="Instagram-logo" transform="translate(1.000000, 1.000000)" fill="#FFFFFF">
            <path d="M22.9495868,5.18016529 C21.9580812,5.18199053 21.1556583,5.98700218 21.1570267,6.97850847 C21.1583951,7.97001475 21.9630369,8.77280851 22.9545437,8.77189702 C23.9460505,8.77098554 24.7492149,7.96671374 24.7487603,6.97520661 C24.7485418,6.49848277 24.5587843,6.04140754 24.2213022,5.70470062 C23.8838202,5.3679937 23.4263099,5.1792877 22.9495868,5.18016529 Z" id="Path"></path>
            <path d="M24.7636364,0.785950413 C23.8115702,0.415702479 22.7239669,0.162809917 21.131405,0.0909090909 C19.538843,0.0190082645 19.0264463,0 14.9628099,0 C10.8991736,0 10.3900826,0.0173553719 8.79338843,0.0909090909 C7.19669421,0.16446281 6.11322314,0.415702479 5.16198347,0.785950413 C3.15108591,1.56387819 1.56197987,3.1544848 0.785950413,5.1661157 C0.415702479,6.11735537 0.162809917,7.20495868 0.0909090909,8.79752066 C0.0190082645,10.3900826 0,10.9033058 0,14.9669421 C0,19.0305785 0.0173553719,19.5396694 0.0909090909,21.1355372 C0.16446281,22.731405 0.415702479,23.8157025 0.785950413,24.7669421 C1.56344003,26.7790616 3.15399626,28.3696178 5.1661157,29.1471074 C6.11735537,29.5165289 7.20495868,29.7694215 8.79752066,29.8421488 C10.3900826,29.914876 10.9033058,29.9322314 14.9669421,29.9322314 C19.0305785,29.9322314 19.5396694,29.914876 21.1355372,29.8421488 C22.731405,29.7694215 23.8157025,29.5165289 24.7677686,29.1471074 C26.7783211,28.3686501 28.3672423,26.7782285 29.1438017,24.7669421 C29.5132231,23.8157025 29.7669421,22.7280992 29.838843,21.1355372 C29.9107438,19.5429752 29.9289256,19.0305785 29.9289256,14.9669421 C29.9289256,10.9033058 29.9123967,10.3933884 29.838843,8.79752066 C29.7652893,7.20165289 29.5132231,6.11735537 29.1438017,5.1661157 C28.7672379,4.16594656 28.1769169,3.26001673 27.4140496,2.51157025 C26.6664769,1.75059265 25.7620108,1.1617167 24.7636364,0.785950413 Z M26.6264463,6.13801653 C26.831405,6.66528926 27.0752066,7.46033058 27.1421488,8.91652893 C27.2140496,10.4942149 27.2289256,10.9669421 27.2289256,14.9628099 C27.2289256,18.9586777 27.2140496,19.4305785 27.1421488,21.0082645 C27.0752066,22.4677686 26.831405,23.2603306 26.6264463,23.7867769 C26.1234851,25.0919449 25.0919449,26.1234851 23.7867769,26.6264463 C23.2595041,26.8322314 22.4644628,27.0752066 21.0090909,27.1413223 C19.431405,27.2140496 18.9578512,27.2289256 14.9628099,27.2289256 C10.9677686,27.2289256 10.4942149,27.2140496 8.91652893,27.1413223 C7.45785124,27.0752066 6.66528926,26.8322314 6.13884298,26.6264463 C4.83388033,26.1228815 3.80229156,25.0915929 3.29834711,23.7867769 C3.09586777,23.2603306 2.84793388,22.4719008 2.78347107,21.0082645 C2.71157025,19.4305785 2.69586777,18.9578512 2.69586777,14.9628099 C2.69586777,10.9677686 2.71157025,10.4942149 2.78347107,8.91652893 C2.85041322,7.45785124 3.09338843,6.66528926 3.29834711,6.13801653 C3.80229156,4.83320047 4.83388033,3.80191184 6.13884298,3.29834711 C6.66528926,3.09421488 7.46115702,2.85041322 8.91652893,2.78347107 C10.4942149,2.71157025 10.9677686,2.69586777 14.9628099,2.69586777 C18.9578512,2.69586777 19.4305785,2.71157025 21.0090909,2.78347107 C22.4677686,2.85041322 23.2595041,3.09421488 23.7867769,3.29834711 C25.0914261,3.80210563 26.1226878,4.83336729 26.6264463,6.13801653 Z" id="Shape" fill-rule="nonzero"></path>
            <path d="M14.9628099,7.27933884 C10.7179767,7.27933884 7.2768595,10.7204561 7.2768595,14.9652893 C7.2768595,19.2101225 10.7179767,22.6512397 14.9628099,22.6512397 C19.2076431,22.6512397 22.6487603,19.2101225 22.6487603,14.9652893 C22.6487603,12.9268485 21.8389929,10.9718969 20.3975976,9.5305016 C18.9562023,8.08910629 17.0012507,7.27933884 14.9628099,7.27933884 Z M19.9504132,14.9652893 C19.9504132,17.7198665 17.7173872,19.9528926 14.9628099,19.9528926 C12.2082327,19.9528926 9.97520661,17.7198665 9.97520661,14.9652893 C9.97520661,12.210712 12.2082327,9.97768595 14.9628099,9.97768595 C17.7164192,9.97768561 19.9490444,12.209201 19.9504132,14.9628099 L19.9504132,14.9652893 Z" id="Shape" fill-rule="nonzero"></path>
        </g>
    </g>
</svg>