<?xml version="1.0" encoding="UTF-8"?>
<svg width="32px" height="32px" viewBox="0 0 32 32" version="1.1" xmlns="http://www.w3.org/2000/svg" xmlns:xlink="http://www.w3.org/1999/xlink">
    <!-- Generator: Sketch 52.5 (67469) - http://www.bohemiancoding.com/sketch -->
    <title>icon copy 20</title>
    <desc>Created with Sketch.</desc>
    <g id="icon-copy-20" stroke="none" stroke-width="1" fill="none" fill-rule="evenodd">
        <g id="Instagram_logo_2016-blank" transform="translate(1.000000, 1.000000)" fill="#C837AB">
            <path d="M23.4503817,8.40458015 C23.2442748,7.90076336 23.0152672,7.53435115 22.6259542,7.14503817 C22.2366412,6.75572519 21.870229,6.52671756 21.3664122,6.32061069 C20.9770992,6.16030534 20.4045802,5.97709924 19.3282443,5.93129771 C18.1603053,5.86259542 17.8167939,5.86259542 14.8854962,5.86259542 C14.519084,5.86259542 14.1984733,5.86259542 13.9007634,5.86259542 C11.8625954,5.86259542 11.4503817,5.88549618 10.4427481,5.93129771 C9.36641221,6 8.79389313,6.16030534 8.40458015,6.32061069 C7.90076336,6.52671756 7.53435115,6.75572519 7.14503817,7.14503817 C6.75572519,7.53435115 6.52671756,7.90076336 6.32061069,8.40458015 C6.16030534,8.79389313 5.97709924,9.36641221 5.93129771,10.4427481 C5.86259542,11.610687 5.86259542,11.9541985 5.86259542,14.8854962 C5.86259542,17.8167939 5.88549618,18.1603053 5.93129771,19.3282443 C6,20.4045802 6.16030534,20.9770992 6.32061069,21.3664122 C6.52671756,21.870229 6.75572519,22.2366412 7.14503817,22.6259542 C7.53435115,23.0152672 7.90076336,23.2442748 8.40458015,23.4503817 C8.79389313,23.610687 9.36641221,23.7938931 10.4427481,23.8396947 C11.610687,23.8854962 11.9541985,23.9083969 14.8854962,23.9083969 C17.8167939,23.9083969 18.1603053,23.8854962 19.3282443,23.8396947 C20.4045802,23.7709924 20.9770992,23.610687 21.3664122,23.4503817 C21.870229,23.2442748 22.2366412,23.0152672 22.6259542,22.6259542 C23.0152672,22.2366412 23.2442748,21.870229 23.4503817,21.3664122 C23.610687,20.9770992 23.7938931,20.4045802 23.8396947,19.3282443 C23.8854962,18.1603053 23.9083969,17.8167939 23.9083969,14.8854962 C23.9083969,11.9541985 23.8854962,11.610687 23.8396947,10.4427481 C23.7709924,9.36641221 23.610687,8.79389313 23.4503817,8.40458015 Z M14.8854962,20.519084 C11.7480916,20.519084 9.22900763,18.0229008 9.22900763,14.8854962 C9.22900763,11.7480916 11.7709924,9.22900763 14.8854962,9.22900763 C18,9.22900763 20.519084,11.7709924 20.519084,14.8854962 C20.519084,18 18,20.519084 14.8854962,20.519084 Z M20.7480916,10.351145 C20.0152672,10.351145 19.4198473,9.75572519 19.4198473,9.02290076 C19.4198473,8.29007634 20.0152672,7.69465649 20.7480916,7.69465649 C21.480916,7.69465649 22.0763359,8.29007634 22.0763359,9.02290076 C22.0763359,9.75572519 21.480916,10.351145 20.7480916,10.351145 Z" id="Shape" fill-rule="nonzero"></path>
            <path d="M29.7709924,6.48091603 C29.6793893,5.29007634 29.4732824,4.48854962 29.0610687,3.64122137 C28.7175573,2.95419847 28.3282443,2.42748092 27.778626,1.90076336 C26.7938931,0.961832061 25.5801527,0.389312977 24.1603053,0.183206107 C23.4732824,0.0916030534 23.3358779,0.0458015267 19.7633588,0.0458015267 L14.8854962,0.0458015267 L14.8854962,0 C8.67938931,0 6.87022901,0 6.50381679,0.0458015267 C5.22137405,0.160305344 4.44274809,0.34351145 3.57251908,0.778625954 C2.90839695,1.09923664 2.38167939,1.48854962 1.85496183,2.03816794 C0.916030534,3 0.34351145,4.21374046 0.13740458,5.65648855 C0.0458015267,6.34351145 0,6.48091603 0,10.0305344 C0,11.221374 0,12.778626 0,14.8854962 C0,21.0916031 0,22.9007634 0.0458015267,23.2671756 C0.160305344,24.5038168 0.34351145,25.2824427 0.755725191,26.1526718 C1.53435115,27.778626 3.04580153,29.0152672 4.83206107,29.4732824 C5.45038168,29.6335878 6.11450382,29.7251908 6.98473282,29.7709924 C7.35114504,29.7938931 11.1068702,29.7938931 14.8625954,29.7938931 C18.6183206,29.7938931 22.3740458,29.7938931 22.740458,29.7709924 C23.7480916,29.7251908 24.3435115,29.6335878 24.9847328,29.4732824 C26.7709924,29.0152672 28.2366412,27.8015267 29.0610687,26.1526718 C29.4732824,25.3282443 29.6793893,24.5038168 29.7709924,23.3358779 C29.7938931,23.0839695 29.7938931,18.9847328 29.7938931,14.9083969 C29.7938931,10.8320611 29.7938931,6.73282443 29.7709924,6.48091603 Z M25.8091603,19.4198473 C25.7633588,20.610687 25.5801527,21.389313 25.3053435,22.0992366 C25.0305344,22.8320611 24.6641221,23.4274809 24.0458015,24.0458015 C23.4274809,24.6412214 22.8320611,25.0305344 22.0992366,25.3053435 C21.389313,25.5801527 20.5877863,25.7633588 19.4198473,25.8091603 C18.2519084,25.8549618 17.8625954,25.8778626 14.8854962,25.8778626 C11.9083969,25.8778626 11.519084,25.8549618 10.351145,25.8091603 C9.16030534,25.7633588 8.38167939,25.5801527 7.67175573,25.3053435 C6.9389313,25.0305344 6.34351145,24.6641221 5.72519084,24.0458015 C5.12977099,23.4274809 4.74045802,22.8320611 4.46564885,22.0992366 C4.19083969,21.389313 4.00763359,20.5877863 3.96183206,19.4198473 C3.91603053,18.2519084 3.89312977,17.8625954 3.89312977,14.8854962 C3.89312977,11.9083969 3.91603053,11.519084 3.96183206,10.351145 C4.00763359,9.16030534 4.19083969,8.38167939 4.46564885,7.67175573 C4.74045802,6.9389313 5.10687023,6.34351145 5.72519084,5.72519084 C6.34351145,5.12977099 6.9389313,4.74045802 7.67175573,4.46564885 C8.38167939,4.19083969 9.18320611,4.00763359 10.351145,3.96183206 C11.519084,3.91603053 11.9083969,3.89312977 14.8854962,3.89312977 C17.8625954,3.89312977 18.2519084,3.91603053 19.4198473,3.96183206 C20.5877863,4.00763359 21.389313,4.19083969 22.0992366,4.46564885 C22.8320611,4.74045802 23.4274809,5.10687023 24.0458015,5.72519084 C24.6412214,6.34351145 25.0305344,6.9389313 25.3053435,7.67175573 C25.5572519,8.38167939 25.7633588,9.18320611 25.8091603,10.351145 C25.8549618,11.519084 25.8778626,11.9083969 25.8778626,14.8854962 C25.8778626,17.8625954 25.8549618,18.2519084 25.8091603,19.4198473 Z" id="Shape" fill-rule="nonzero"></path>
            <circle id="Oval" cx="14.8854962" cy="14.8854962" r="3.66412214"></circle>
        </g>
    </g>
</svg>