<svg version="1.1" xmlns="http://www.w3.org/2000/svg" width="32" height="32" viewBox="0 0 32 32">
<path d="M23.844 9.742c2.081 1.372 4.383 3.586 6.906 6.641-1.063 1.151-1.815 1.948-2.258 2.391s-1.262 1.184-2.457 2.225c-1.195 1.040-2.225 1.804-3.088 2.291s-1.937 0.952-3.221 1.395c-1.284 0.443-2.568 0.664-3.852 0.664-2.214 0-4.25-0.487-6.109-1.461l-5.113 5.113-1.527-1.527 4.715-4.715c-1.328-0.93-3.608-3.099-6.84-6.508 2.833-3.099 5.379-5.39 7.637-6.873s4.671-2.225 7.238-2.225c2.036 0 4.073 0.509 6.109 1.527l5.113-5.18 1.527 1.527-4.781 4.715zM9.898 16.25c0 1.195 0.354 2.324 1.063 3.387l1.793-1.793c-0.221-0.398-0.332-0.93-0.332-1.594 0-0.974 0.332-1.804 0.996-2.49s1.483-1.029 2.457-1.029h0.531c-0.354 0.443-0.531 0.908-0.531 1.395 0 0.221 0.022 0.398 0.066 0.531l3.387-3.32c-1.018-0.753-2.169-1.129-3.453-1.129-1.638 0-3.044 0.598-4.217 1.793s-1.76 2.612-1.76 4.25zM15.875 22.293c1.638 0 3.044-0.598 4.217-1.793s1.76-2.612 1.76-4.25c0-1.24-0.354-2.391-1.063-3.453l-3.32 3.387c0.133 0.044 0.31 0.066 0.531 0.066 0.443 0 0.885-0.155 1.328-0.465v0.465c0 0.974-0.332 1.804-0.996 2.49s-1.483 1.029-2.457 1.029c-0.62 0-1.151-0.133-1.594-0.398l-1.859 1.793c1.018 0.753 2.169 1.129 3.453 1.129z"></path>
</svg>
