<?xml version="1.0" encoding="UTF-8"?>
<svg width="32px" height="32px" viewBox="0 0 32 32" version="1.1" xmlns="http://www.w3.org/2000/svg" xmlns:xlink="http://www.w3.org/1999/xlink">
    <!-- Generator: Sketch 52.5 (67469) - http://www.bohemiancoding.com/sketch -->
    <title>icon copy 21</title>
    <desc>Created with Sketch.</desc>
    <g id="icon-copy-21" stroke="none" stroke-width="1" fill="none" fill-rule="evenodd">
        <g id="LinkedIn-Icon-squircle" transform="translate(1.000000, 1.000000)">
            <path d="M24.375,30 L5.625,30 C2.53125,30 0,27.46875 0,24.375 L0,5.625 C0,2.53125 2.53125,0 5.625,0 L24.375,0 C27.46875,0 30,2.53125 30,5.625 L30,24.375 C30,27.46875 27.46875,30 24.375,30 Z" id="Path" fill="#006699"></path>
            <path d="M3.515625,10.921875 L8.34375,10.921875 L8.34375,26.53125 L3.515625,26.53125 L3.515625,10.921875 Z M5.953125,3.140625 C7.5,3.140625 8.765625,4.40625 8.765625,6 C8.765625,7.546875 7.5,8.859375 5.953125,8.859375 C4.40625,8.859375 3.140625,7.59375 3.140625,6 C3.140625,4.40625 4.40625,3.140625 5.953125,3.140625 Z" id="Shape" fill="#FFFFFF" fill-rule="nonzero"></path>
            <path d="M11.4375,10.921875 L16.125,10.921875 L16.125,13.03125 L16.171875,13.03125 C16.828125,11.765625 18.421875,10.5 20.765625,10.5 C25.6875,10.5 26.578125,13.734375 26.578125,17.953125 L26.578125,26.53125 L21.75,26.53125 L21.75,18.9375 C21.75,17.15625 21.703125,14.765625 19.265625,14.765625 C16.78125,14.765625 16.359375,16.734375 16.359375,18.796875 L16.359375,26.578125 L11.484375,26.578125 L11.484375,10.921875 L11.4375,10.921875 Z" id="Path" fill="#FFFFFF"></path>
        </g>
    </g>
</svg>