<?xml version="1.0" encoding="UTF-8"?>
<svg width="32px" height="32px" viewBox="0 0 32 32" version="1.1" xmlns="http://www.w3.org/2000/svg" xmlns:xlink="http://www.w3.org/1999/xlink">
    <!-- Generator: Sketch 47.1 (45422) - http://www.bohemiancoding.com/sketch -->
    <title>icon copy 11</title>
    <desc>Created with Sketch.</desc>
    <defs></defs>
    <g id="Page-1" stroke="none" stroke-width="1" fill="none" fill-rule="evenodd">
        <g id="icon-copy-11">
            <g id="Newsletter" transform="translate(1.000000, 1.000000)">
                <path d="M22.8515625,-1.77635684e-15 C27.1875,-1.77635684e-15 30,2.8125 30,7.1484375 L30,22.8515625 C30,27.1875 27.1875,30 22.8515625,30 L7.1484375,30 C2.8125,30 0,27.1875 0,22.8515625 L0,7.1484375 C0,2.8125 2.8125,-1.77635684e-15 7.1484375,-1.77635684e-15 L22.8515625,-1.77635684e-15 Z" id="App-Icon-Shape" fill="#417505" fill-rule="nonzero"></path>
                <g id="Group-Copy" transform="translate(5.500000, 4.500000)">
                    <polygon id="Path-3" stroke="#FFFFFF" fill="#FFFFFF" fill-rule="nonzero" points="1.08139228 8.43791403 1.08139228 20.5238023 18.3575943 20.5238023 18.3575943 8.43791403"></polygon>
                    <g id="Triangle-3">
                        <g id="path-1-link" fill="#FFFFFF">
                            <polygon id="path-1" points="9.58461676 0.461346286 18.712519 8.0933841 0.741446762 8.0933841"></polygon>
                        </g>
                        <polygon id="Shape" stroke="#FFFFFF" points="9.58974578 1.11738235 2.08606384 7.5933841 17.3350311 7.5933841"></polygon>
                    </g>
                    <g id="Triangle-3" transform="translate(9.500000, 12.384842) scale(-1, 1) rotate(-180.000000) translate(-9.500000, -12.384842) translate(0.000000, 7.884842)">
                        <g id="path-2-link" fill="#FFFFFF">
                            <polygon id="path-2" points="9.73683285 0.41846228 18.5895417 8.4663794 0.884123999 8.4663794"></polygon>
                        </g>
                        <polygon id="Shape" stroke="#417505" points="9.73683285 1.09419267 2.17742744 7.9663794 17.2962383 7.9663794"></polygon>
                    </g>
                    <polygon id="Rectangle-3" fill="#FFFFFF" fill-rule="nonzero" points="2.98088542 1.54531312 16.6390614 1.54531312 16.6390614 9.12764762 15.2593413 9.88095072 4.13353872 9.88095072 2.98088542 9.2671678"></polygon>
                    <path d="M12.7440632,12.1360209 C12.9823634,12.2240884 13.3320379,12.3743189 13.7930971,12.586717 C12.7984526,13.5813614 11.4878209,14.0786762 9.86116279,14.0786762 C8.203422,14.0786762 6.87595417,13.5684105 5.87871948,12.5478639 C4.88148479,11.5273172 4.38287492,10.1856034 4.38287492,8.52268213 C4.38287492,6.83385871 4.88796024,5.44811181 5.89814603,4.36539985 C6.90833183,3.2826879 8.2293242,2.74134005 9.86116279,2.74134005 C11.4308361,2.74134005 12.6948445,3.21016283 13.6532259,4.14782246 C14.6116073,5.0854821 15.0907908,6.33653958 15.0907908,7.90103245 C15.0907908,8.78170724 14.8589696,9.5289745 14.3953202,10.1428566 C13.9316708,10.7567388 13.319093,11.0636752 12.5575683,11.0636752 C11.7338784,11.0636752 11.1381367,10.8823626 10.7703255,10.5197318 C10.3299881,10.9238061 9.80936165,11.1258402 9.20843062,11.1258402 C8.65412354,11.1258402 8.20602221,10.9743146 7.86411317,10.6712589 C7.52220413,10.3682031 7.35125218,9.9602496 7.35125218,9.44738604 C7.35125218,8.79465061 7.63099174,8.29733583 8.19047925,7.9554268 C8.74996677,7.61351776 9.50629966,7.4425658 10.4595006,7.4425658 C10.381794,6.68104113 10.0761526,6.3002845 9.54256732,6.3002845 C8.99862113,6.3002845 8.56865106,6.44533465 8.25264422,6.73543928 L7.87965441,5.9661478 C8.30445049,5.65014096 8.82248671,5.49213991 9.43377863,5.49213991 C10.8739409,5.49213991 11.5940113,6.31840769 11.5940113,7.97096804 L11.5940113,9.82814648 C11.967003,10.1027098 12.2830051,10.2399894 12.5420271,10.2399894 C13.5055889,10.2399894 13.9873626,9.45257433 13.9873626,7.87772058 C13.9873626,6.68103895 13.5988354,5.68381922 12.8217694,4.88603147 C12.0447034,4.08824371 11.0578444,3.68935582 9.86116279,3.68935582 C8.55051148,3.68935582 7.49371758,4.14263752 6.69074938,5.04921451 C5.88778119,5.9557915 5.48630312,7.11360247 5.48630312,8.52268213 C5.48630312,9.9058596 5.88389592,11.0196375 6.67909345,11.8640492 C7.47429099,12.7084609 8.53497016,13.1306604 9.86116279,13.1306604 C11.0578444,13.1306604 12.0188016,12.7991173 12.7440632,12.1360209 Z M10.4595006,9.9835589 L10.4595006,8.16523356 L10.0631989,8.16523356 C9.05301314,8.16523356 8.54792782,8.57966254 8.54792782,9.40853294 C8.54792782,9.6882767 8.64635471,9.91880282 8.84321142,10.1001182 C9.04006814,10.2814336 9.28613535,10.37209 9.58142043,10.37209 C9.90778815,10.37209 10.2004786,10.2425809 10.4595006,9.9835589 Z" id="@" fill="#417505" fill-rule="nonzero"></path>
                </g>
            </g>
        </g>
    </g>
</svg>