<svg version="1.1" xmlns="http://www.w3.org/2000/svg" width="32" height="32" viewBox="0 0 32 32">
<path d="M13.429 18.963c0.692 0.167 1.406 0.251 2.143 0.251s1.451-0.084 2.143-0.251v10.965c0 0.29-0.106 0.541-0.318 0.753s-0.463 0.318-0.753 0.318h-2.143c-0.29 0-0.541-0.106-0.753-0.318s-0.318-0.463-0.318-0.753v-10.965zM9.511 3.511c1.674-1.674 3.694-2.511 6.060-2.511s4.386 0.837 6.060 2.511c1.674 1.674 2.511 3.694 2.511 6.060s-0.837 4.386-2.511 6.060c-1.674 1.674-3.694 2.511-6.060 2.511s-4.386-0.837-6.060-2.511c-1.674-1.674-2.511-3.694-2.511-6.060s0.837-4.386 2.511-6.060zM15.571 4.75c0.156 0 0.285-0.050 0.385-0.151s0.151-0.229 0.151-0.385c0-0.156-0.050-0.285-0.151-0.385s-0.229-0.151-0.385-0.151c-1.629 0-3.019 0.575-4.169 1.724s-1.724 2.539-1.724 4.169c0 0.156 0.050 0.285 0.151 0.385s0.229 0.151 0.385 0.151c0.156 0 0.285-0.050 0.385-0.151s0.151-0.229 0.151-0.385c0-1.328 0.472-2.464 1.415-3.407s2.079-1.415 3.407-1.415z"></path>
</svg>
