<?xml version="1.0" encoding="UTF-8"?>
<svg width="32px" height="32px" viewBox="0 0 32 32" version="1.1" xmlns="http://www.w3.org/2000/svg" xmlns:xlink="http://www.w3.org/1999/xlink">
    <!-- Generator: Sketch 47.1 (45422) - http://www.bohemiancoding.com/sketch -->
    <title>icon copy 12</title>
    <desc>Created with Sketch.</desc>
    <defs></defs>
    <g id="Page-1" stroke="none" stroke-width="1" fill="none" fill-rule="evenodd">
        <g id="icon-copy-12" fill-rule="nonzero">
            <g id="rss" transform="translate(1.000000, 1.000000)">
                <path d="M22.8515625,-1.77635684e-15 C27.1875,-1.77635684e-15 30,2.8125 30,7.1484375 L30,22.8515625 C30,27.1875 27.1875,30 22.8515625,30 L7.1484375,30 C2.8125,30 0,27.1875 0,22.8515625 L0,7.1484375 C0,2.8125 2.8125,-1.77635684e-15 7.1484375,-1.77635684e-15 L22.8515625,-1.77635684e-15 Z" id="App-Icon-Shape" fill="#F8991D"></path>
                <g id="Group" transform="translate(5.000000, 5.000000)" fill="#FFFFFF">
                    <path d="M0.000211594413,16.9277344 C0.000211594413,15.3696775 1.26343024,14.1064453 2.82147043,14.1064453 C4.37951062,14.1064453 5.64272926,15.3696775 5.64272926,16.9277344 C5.64272926,18.4857913 4.37951062,19.7490234 2.82147043,19.7490234 C1.26343024,19.7490234 0.000211594413,18.4857913 0.000211594413,16.9277344 Z M19.7490234,19.7490234 L15.9875801,19.7490234 C15.9875801,10.9332004 8.81594014,3.76148364 0.000211594413,3.76148364 L0.000211594413,0 C10.8895654,0 19.7490234,8.85955298 19.7490234,19.7490234 Z M13.1661097,19.7490234 L9.40466633,19.7490234 C9.40466633,14.5634941 5.18547374,10.3449617 0,10.3449617 L0,6.58277271 C7.2598043,6.58277271 13.1661097,12.4891414 13.1661097,19.7490234 Z" id="RSS"></path>
                </g>
            </g>
        </g>
    </g>
</svg>