<svg xmlns="http://www.w3.org/2000/svg" width="32" height="32">
  <g fill="none">
    <path fill="#F8991D" d="M23.852 1C28.187 1 31 3.813 31 8.148v15.704C31 28.187 28.187 31 23.852 31H8.148C3.813 31 1 28.187 1 23.852V8.148C1 3.813 3.813 1 8.148 1h15.704z"/>
    <path fill="#FFF" d="M6 22.928a2.821 2.821 0 1 1 5.643 0 2.821 2.821 0 0 1-5.643 0zm19.749 2.821h-3.761c0-8.816-7.172-15.988-15.988-15.988V6c10.89 0 19.75 8.86 19.75 19.749zm-6.583 0h-3.761c0-5.186-4.22-9.404-9.405-9.404v-3.762c7.26 0 13.166 5.906 13.166 13.166z"/>
  </g>
</svg>
