<!-- Generated by IcoMoon.io -->
<svg version="1.1" xmlns="http://www.w3.org/2000/svg" width="32" height="32" viewBox="0 0 32 32">
<title>search</title>
<path d="M30.4 27.1l-6.2-6.2c1.5-2.2 2.2-4.5 2.2-7.2 0-1.7-0.3-3.4-1-4.9-0.7-1.6-1.6-2.9-2.7-4.1-1.1-1.1-2.5-2-4.1-2.7s-3.2-1-4.9-1c-1.7 0-3.4 0.3-4.9 1-1.6 0.7-2.9 1.6-4.1 2.8-1.1 1.1-2 2.4-2.7 4s-1 3.2-1 4.9c0 1.7 0.3 3.4 1 4.9 0.7 1.6 1.6 3 2.7 4.1s2.5 2 4.1 2.7c1.6 0.7 3.2 1 4.9 1 2.6 0 5-0.7 7.2-2.2l6.2 6.2c0.4 0.5 1 0.7 1.6 0.7s1.2-0.2 1.6-0.7c0.5-0.5 0.7-1 0.7-1.6 0-0.7-0.2-1.2-0.6-1.7zM19.4 19.4c-1.6 1.6-3.5 2.4-5.7 2.4s-4.1-0.8-5.7-2.4c-1.6-1.6-2.4-3.5-2.4-5.7s0.8-4.1 2.4-5.7c1.6-1.6 3.5-2.4 5.7-2.4s4.1 0.8 5.7 2.4c1.6 1.6 2.4 3.5 2.4 5.7 0 2.3-0.8 4.2-2.4 5.7z"></path>
</svg>
