<svg xmlns="http://www.w3.org/2000/svg" width="32" height="32">
  <g fill="none">
    <path fill="#1DA1F2" d="M23.852 1C28.187 1 31 3.813 31 8.148v15.704C31 28.187 28.187 31 23.852 31H8.148C3.813 31 1 28.187 1 23.852V8.148C1 3.813 3.813 1 8.148 1h15.704z"/>
    <path fill="#FFF" d="M7.67 8.705s3.403 4.232 8.59 4.486c0 0-1.059-2.806 2.105-4.73 0 0 2.571-1.51 5.052.935 0 0 1.119-.054 2.468-1.046 0 0 .198.913-1.56 2.38 0 0 .978-.079 2.089-.806 0 0-.212 1.256-2.024 2.168 0 0 .552 9.94-9.148 12.115 0 0-5.13 1.158-8.742-1.676 0 0 3.832.399 5.868-1.737 0 0-2.555.24-3.812-2.774 0 0 1.277.22 1.796-.2 0 0-2.695.02-3.293-4.011 0 0 1.098.559 1.816.459 0 0-3.05-1.884-1.206-5.563"/>
  </g>
</svg>
