<svg version="1.1" xmlns="http://www.w3.org/2000/svg" width="32" height="32" viewBox="0 0 32 32">
<path d="M15.875 7.75c4.87 0 9.828 2.855 14.875 8.566-1.195 1.195-1.959 1.948-2.291 2.258s-1.14 0.996-2.424 2.059c-1.284 1.063-2.324 1.793-3.121 2.191s-1.848 0.819-3.154 1.262c-1.306 0.443-2.601 0.664-3.885 0.664-1.594 0-3.055-0.199-4.383-0.598s-2.656-1.085-3.984-2.059c-1.328-0.974-2.369-1.804-3.121-2.49s-1.881-1.804-3.387-3.354c2.878-2.878 5.434-5.014 7.67-6.408s4.637-2.092 7.205-2.092zM15.875 22.293c1.638 0 3.044-0.598 4.217-1.793s1.76-2.612 1.76-4.25c0-1.638-0.587-3.055-1.76-4.25s-2.579-1.793-4.217-1.793c-1.638 0-3.044 0.598-4.217 1.793s-1.76 2.612-1.76 4.25c0 1.638 0.587 3.055 1.76 4.25s2.579 1.793 4.217 1.793zM15.875 14.125c0 0.62 0.199 1.129 0.598 1.527s0.908 0.598 1.527 0.598c0.443 0 0.885-0.155 1.328-0.465v0.465c0 0.974-0.332 1.804-0.996 2.49s-1.483 1.029-2.457 1.029c-0.974 0-1.793-0.343-2.457-1.029s-0.996-1.516-0.996-2.49c0-0.974 0.332-1.804 0.996-2.49s1.483-1.029 2.457-1.029h0.531c-0.354 0.443-0.531 0.908-0.531 1.395z"></path>
</svg>
