<svg xmlns="http://www.w3.org/2000/svg" viewBox="0 0 8 30" preserveAspectRatio="xMidYMin slice">
    <g id="Style-Guide" stroke="none" stroke-width="1" fill="none" fill-rule="evenodd">
        <g id="Forms" transform="translate(-555.000000, -3911.000000)" fill="#AD0505">
            <g id="Form-input-error" transform="translate(90.000000, 3870.000000)">
                <g id="Icon-/-Error-icon" transform="translate(465.000000, 41.000000)">
                    <path d="M2.02682161,-7.22078647e-17 L5.67563011,-7.22078647e-17 L5.67563011,0 C6.78019961,-2.02908437e-16 7.67563011,0.8954305 7.67563011,2 C7.67563011,2.01367382 7.67548988,2.02734729 7.67520944,2.04101824 L7.30818531,19.9329101 C7.28585942,21.0212647 6.39718955,21.8918919 5.30860597,21.8918919 L2.45126882,21.8918919 L2.45126882,21.8918919 C1.3651794,21.8918919 0.477589286,21.0251083 0.451831363,19.9393243 L0.0273841442,2.04743242 L0.0273841442,2.04743242 C0.00118794391,0.943173598 0.875130371,0.026758738 1.97938919,0.000562537647 C1.99519722,0.000187525735 2.01100913,2.90024081e-18 2.02682161,0 L2.02682161,-7.22078647e-17 Z M2.7915776,23.5135135 L4.98218927,23.5135135 C6.08675877,23.5135135 6.98218927,24.408944 6.98218927,25.5135135 L6.98218927,28 C6.98218927,29.1045695 6.08675877,30 4.98218927,30 L2.7915776,30 C1.6870081,30 0.791577603,29.1045695 0.791577603,28 L0.791577603,25.5135135 C0.791577603,24.408944 1.6870081,23.5135135 2.7915776,23.5135135 L2.7915776,23.5135135 Z" id="Combined-Shape"></path>
                </g>
            </g>
        </g>
    </g>
</svg>