<svg width="30" height="30" xmlns="http://www.w3.org/2000/svg" xmlns:xlink="http://www.w3.org/1999/xlink">
 <!-- Generator: Sketch 46.2 (44496) - http://www.bohemiancoding.com/sketch -->
 <title>Icon / Newsletter</title>
 <desc>Created with Sketch.</desc>
 <defs>
  <polygon points="9.58461676 0.461346286 18.712519 8.0933841 0.741446762 8.0933841" id="path-1"/>
  <polygon points="9.73683285 8.41846228 18.5895417 16.4663794 0.884123999 16.4663794" id="path-2"/>
 </defs>
 <g>
  <title>background</title>
  <rect fill="none" id="canvas_background" height="402" width="582" y="-1" x="-1"/>
 </g>
 <g>
  <title>Layer 1</title>
  <g fill-rule="evenodd" fill="none" id="Page-1">
   <g id="Icon-/-Newsletter">
    <path fill="#417505" id="App-Icon-Shape" d="m22.851563,0c4.335937,0 7.148437,2.8125 7.148437,7.148438l0,15.703125c0,4.335937 -2.8125,7.148437 -7.148437,7.148437l-15.703125,0c-4.335938,0 -7.148438,-2.8125 -7.148438,-7.148437l0,-15.703125c0,-4.335938 2.8125,-7.148438 7.148438,-7.148438l15.703125,0z"/>
    <g id="Group-Copy">
     <polygon points="6.581392288208008,12.93791389465332 6.581392288208008,25.023801803588867 23.857593536376953,25.023801803588867 23.857593536376953,12.93791389465332 " fill="#FFFFFF" stroke="#FFFFFF" id="Path-3"/>
     <g id="Triangle-3">
      <use id="svg_1" x="5.5" y="4.5" xlink:href="#path-1" fill-rule="evenodd" fill="#FFFFFF"/>
      <path id="svg_2" d="m15.089746,5.617382l-7.503682,6.476002l15.248967,0l-7.745285,-6.476002z" stroke="#FFFFFF"/>
     </g>
     <g id="Triangle-3">
      <use id="svg_3" x="5.5" y="4.5" xlink:href="#path-2" fill-rule="evenodd" fill="#FFFFFF"/>
      <path id="svg_4" d="m15.236833,20.290649l-7.559406,-6.872186l15.118811,0l-7.559405,6.872186z" stroke="#417505"/>
     </g>
     <polygon points="8.48088550567627,6.045313119888306 22.139060974121094,6.045313119888306 22.139060974121094,13.627647399902344 20.7593412399292,14.380950927734375 9.633538722991943,14.380950927734375 8.48088550567627,13.767168045043945 " fill="#FFFFFF" id="Rectangle-3"/>
     <path fill="#417505" id="@" d="m18.244063,16.636021c0.2383,0.088067 0.587975,0.238298 1.049034,0.450696c-0.994644,0.994644 -2.305276,1.491959 -3.931934,1.491959c-1.657741,0 -2.985209,-0.510265 -3.982444,-1.530812c-0.997234,-1.020547 -1.495844,-2.362261 -1.495844,-4.025182c0,-1.688823 0.505085,-3.07457 1.515271,-4.157282c1.010186,-1.082712 2.331178,-1.62406 3.963017,-1.62406c1.569673,0 2.833682,0.468823 3.792063,1.406482c0.958381,0.93766 1.437565,2.188718 1.437565,3.75321c0,0.880675 -0.231821,1.627943 -0.695471,2.241825c-0.463649,0.613882 -1.076227,0.920818 -1.837752,0.920818c-0.82369,0 -1.419431,-0.181312 -1.787242,-0.543943c-0.440338,0.404074 -0.960964,0.606108 -1.561895,0.606108c-0.554307,0 -1.002409,-0.151525 -1.344318,-0.454581c-0.341909,-0.303056 -0.512861,-0.711009 -0.512861,-1.223873c0,-0.652735 0.27974,-1.15005 0.839227,-1.491959c0.559488,-0.341909 1.315821,-0.512861 2.269022,-0.512861c-0.077707,-0.761525 -0.383348,-1.142281 -0.916934,-1.142281c-0.543946,0 -0.973916,0.14505 -1.289923,0.435154l-0.37299,-0.769291c0.424796,-0.316007 0.942833,-0.474008 1.554125,-0.474008c1.440162,0 2.160232,0.826268 2.160232,2.478828l0,1.857178c0.372992,0.274564 0.688994,0.411843 0.948016,0.411843c0.963562,0 1.445336,-0.787415 1.445336,-2.362268c0,-1.196682 -0.388528,-2.193902 -1.165594,-2.99169c-0.777066,-0.797787 -1.763925,-1.196675 -2.960606,-1.196675c-1.310652,0 -2.367445,0.453282 -3.170414,1.359859c-0.802968,0.906577 -1.204446,2.064387 -1.204446,3.473467c0,1.383178 0.397593,2.496955 1.19279,3.341367c0.795198,0.844412 1.855877,1.266611 3.18207,1.266611c1.196681,0 2.157639,-0.331543 2.8829,-0.994639zm-2.284562,-2.152462l0,-1.818325l-0.396302,0c-1.010186,0 -1.515271,0.414429 -1.515271,1.243299c0,0.279744 0.098427,0.51027 0.295283,0.691585c0.196857,0.181316 0.442924,0.271972 0.738209,0.271972c0.326368,0 0.619059,-0.129509 0.878081,-0.388531z"/>
    </g>
   </g>
  </g>
 </g>
</svg>