<svg xmlns="http://www.w3.org/2000/svg" viewBox="0 0 21 13" preserveAspectRatio="xMidYMin slice">
    <g id="Page-1" stroke="none" stroke-width="1" fill="none" fill-rule="evenodd">
        <g id="angle-arrow-down-icon" fill-rule="nonzero" fill="#A1A1A1">
            <path d="M20.5921664,1.44988895 L19.5501553,0.408169819 C19.4113081,0.2690306 19.2513637,0.199679993 19.0705411,0.199679993 C18.8902295,0.199679993 18.7303581,0.2690306 18.5914379,0.408169819 L10.4000361,8.59884157 L2.20921835,0.408169819 C2.07029814,0.269103601 1.91042674,0.199752993 1.72982315,0.199752993 C1.54914657,0.199752993 1.38927517,0.269103601 1.25042795,0.40824282 L0.208489827,1.45032695 C0.0693506076,1.58910116 0,1.74897257 0,1.92964915 C0,2.11017973 0.0695696098,2.27005113 0.208489827,2.40889835 L9.92078693,12.1213415 C10.0594881,12.2602616 10.2195055,12.3296853 10.4001091,12.3296853 C10.5807127,12.3296853 10.7402921,12.2603347 10.8791393,12.1213415 L20.5921664,2.40889835 C20.7310136,2.26997813 20.7999992,2.11010673 20.7999992,1.92964915 C20.7999992,1.74897257 20.7309406,1.58910116 20.5920934,1.45003495 L20.5921664,1.44988895 Z" id="Shape"></path>
        </g>
    </g>
</svg>
