<svg width="30" height="30" xmlns="http://www.w3.org/2000/svg">
 <!-- Generator: Sketch 46.2 (44496) - http://www.bohemiancoding.com/sketch -->
 <title>Icon / rss</title>
 <desc>Created with Sketch.</desc>

 <g>
  <title>background</title>
  <rect fill="none" id="canvas_background" height="402" width="582" y="-1" x="-1"/>
 </g>
 <g>
  <title>Layer 1</title>
  <g fill-rule="evenodd" fill="none" id="Page-1">
   <g id="Icon-/-rss">
    <g id="rss">
     <path fill="#F8991D" id="App-Icon-Shape" d="m22.851563,0c4.335937,0 7.148437,2.8125 7.148437,7.148438l0,15.703125c0,4.335937 -2.8125,7.148437 -7.148437,7.148437l-15.703125,0c-4.335938,0 -7.148438,-2.8125 -7.148438,-7.148437l0,-15.703125c0,-4.335938 2.8125,-7.148438 7.148438,-7.148438l15.703125,0z"/>
     <g fill="#FFFFFF" id="Group">
      <path id="RSS" d="m5.000212,21.927734c0,-1.558057 1.263218,-2.821289 2.821258,-2.821289c1.558041,0 2.821259,1.263232 2.821259,2.821289c0,1.558057 -1.263218,2.821289 -2.821259,2.821289c-1.55804,0 -2.821258,-1.263232 -2.821258,-2.821289zm19.748811,2.821289l-3.761443,0c0,-8.815823 -7.17164,-15.987539 -15.987368,-15.987539l0,-3.761484c10.889353,0 19.748811,8.859553 19.748811,19.749023zm-6.582913,0l-3.761444,0c0,-5.185529 -4.219192,-9.404061 -9.404666,-9.404061l0,-3.762189c7.259804,0 13.16611,5.906368 13.16611,13.16625z"/>
     </g>
    </g>
   </g>
  </g>
 </g>
</svg>