<svg width="24" height="24" xmlns="http://www.w3.org/2000/svg">
 <!-- Generator: Sketch 46.2 (44496) - http://www.bohemiancoding.com/sketch -->
 <title>Fill 32</title>
 <desc>Created with Sketch.</desc>

 <g>
  <title>background</title>
  <rect fill="none" id="canvas_background" height="402" width="582" y="-1" x="-1"/>
 </g>
 <g>
  <title>Layer 1</title>
  <g fill-rule="evenodd" fill="none" id="Page-1">
   <path fill="#AD0505" id="Fill-32" d="m23.366493,17.887841c0.375003,0.375003 0.563507,0.832225 0.563507,1.369663c0,0.537437 -0.188504,0.99466 -0.563507,1.369663l-2.739326,2.739326c-0.377008,0.377009 -0.834231,0.565513 -1.371669,0.565513c-0.535432,0 -0.992654,-0.188504 -1.367657,-0.565513l-5.923844,-5.921838l-5.921837,5.921838c-0.375003,0.377009 -0.832226,0.565513 -1.369663,0.565513c-0.537438,0 -0.992655,-0.188504 -1.369664,-0.565513l-2.739326,-2.739326c-0.377008,-0.375003 -0.563507,-0.832226 -0.563507,-1.369663c0,-0.537438 0.186499,-0.99466 0.563507,-1.369663l5.921838,-5.921838l-5.921838,-5.921838c-0.377008,-0.377008 -0.563507,-0.832226 -0.563507,-1.371668c0,-0.535432 0.186499,-0.992655 0.563507,-1.367658l2.739326,-2.741332c0.377009,-0.375003 0.832226,-0.563507 1.369664,-0.563507c0.537437,0 0.99466,0.188504 1.369663,0.563507l5.921837,5.921838l5.923844,-5.921838c0.375003,-0.375003 0.832225,-0.563507 1.367657,-0.563507c0.537438,0 0.994661,0.188504 1.371669,0.563507l2.739326,2.741332c0.375003,0.375003 0.563507,0.832226 0.563507,1.367658c0,0.539442 -0.188504,0.99466 -0.563507,1.371668l-5.921838,5.921838l5.921838,5.921838z"/>
  </g>
 </g>
</svg>