<svg width="30" height="30" xmlns="http://www.w3.org/2000/svg">
 <!-- Generator: Sketch 46.2 (44496) - http://www.bohemiancoding.com/sketch -->
 <title>Icon / Twitter</title>
 <desc>Created with Sketch.</desc>

 <g>
  <title>background</title>
  <rect fill="none" id="canvas_background" height="402" width="582" y="-1" x="-1"/>
 </g>
 <g>
  <title>Layer 1</title>
  <g fill-rule="evenodd" fill="none" id="Page-1">
   <g id="Icon-/-Twitter">
    <g id="Twitter">
     <path fill="#1DA1F2" id="App-Icon-Shape" d="m22.851563,0c4.335937,0 7.148437,2.8125 7.148437,7.148438l0,15.703125c0,4.335937 -2.8125,7.148437 -7.148437,7.148437l-15.703125,0c-4.335938,0 -7.148438,-2.8125 -7.148438,-7.148437l0,-15.703125c0,-4.335938 2.8125,-7.148438 7.148438,-7.148438l15.703125,0z"/>
     <path fill="#FFFFFF" id="Icon" d="m6.66925,7.705366c0,0 3.40425,4.2315 8.59025,4.486c0,0 -1.0585,-2.8065 2.10575,-4.73025c0,0 2.57075,-1.51 5.05175,0.935c0,0 1.119,-0.05425 2.46775,-1.046c0,0 0.1985,0.9125 -1.56025,2.38025c0,0 0.9785,-0.07925 2.08925,-0.80675c0,0 -0.2115,1.25625 -2.02325,2.16875c0,0 0.55125,9.9395 -9.1485,12.115c0,0 -5.1295,1.1575 -8.742,-1.6765c0,0 3.832,0.399 5.86775,-1.7365c0,0 -2.5545,0.2395 -3.812,-2.77425c0,0 1.27725,0.2195 1.79625,-0.1995c0,0 -2.6945,0.01975 -3.29325,-4.01175c0,0 1.09775,0.55875 1.81625,0.459c0,0 -3.05025,-1.884 -1.20575,-5.5625"/>
    </g>
   </g>
  </g>
 </g>
</svg>