<svg width="18" height="15" xmlns="http://www.w3.org/2000/svg">
 <!-- Generator: Sketch 46.2 (44496) - http://www.bohemiancoding.com/sketch -->
 <title>icon-arrow-right-link-long-dark</title>
 <desc>Created with Sketch.</desc>

 <g>
  <title>background</title>
  <rect fill="none" id="canvas_background" height="402" width="582" y="-1" x="-1"/>
 </g>
 <g>
  <title>Layer 1</title>
  <g fill-rule="evenodd" fill="none" id="Page-1">
   <g fill="#333333" fill-rule="nonzero" id="icon-arrow-right-link-long-dark">
    <g transform="rotate(-90 9,7.499999999999999) translate(-9,-7.5) translate(2,-1) " id="icon">
     <path id="Shape" d="m16,24.5c-0.163268,0 -0.295775,-0.116688 -0.295775,-0.260465l0,-16.47907c0,-0.143777 0.132507,-0.260465 0.295775,-0.260465c0.163268,0 0.295775,0.116688 0.295775,0.260465l0,16.47907c0,0.143777 -0.132507,0.260465 -0.295775,0.260465z"/>
     <path id="Shape" d="m15.999194,24.5c-0.071424,0 -0.139626,-0.027672 -0.190107,-0.076228l-6.730547,-6.545697c-0.10472,-0.101812 -0.10472,-0.267321 0,-0.369132c0.10472,-0.101812 0.274957,-0.101812 0.379677,0l6.54044,6.36087l6.543126,-6.36087c0.10472,-0.101812 0.274957,-0.101812 0.379677,0c0.10472,0.101811 0.10472,0.26732 0,0.369132l-6.732695,6.545175c-0.050481,0.049078 -0.118146,0.07675 -0.189571,0.07675z"/>
    </g>
   </g>
  </g>
 </g>
</svg>