<svg width="30" height="30" xmlns="http://www.w3.org/2000/svg">
 <g>
  <title>background</title>
  <rect fill="none" id="canvas_background" height="402" width="582" y="-1" x="-1"/>
 </g>
 <g>
  <title>Layer 1</title>
  <g fill-rule="evenodd" fill="none" id="Page-1">
   <g fill="#333333" fill-rule="nonzero" id="magnifying-glass-icon">
    <g id="Fill-134">
     <path id="svg_1" d="m18.399848,18.39961c1.579247,-1.579247 2.369821,-3.481565 2.369821,-5.705055c0,-2.223489 -0.790574,-4.125807 -2.369821,-5.706955c-1.581148,-1.579248 -3.483466,-2.369822 -5.706956,-2.369822c-2.223489,0 -4.125807,0.790574 -5.705055,2.369822c-1.581148,1.581148 -2.371721,3.483466 -2.371721,5.706955c0,2.22349 0.790573,4.125808 2.371721,5.705055c1.579248,1.581148 3.481566,2.371722 5.705055,2.371722c2.22349,0 4.125808,-0.790574 5.706956,-2.371722l0,0zm10.935006,7.671988c0.442797,0.444698 0.665146,0.986317 0.665146,1.622957c0,0.625238 -0.22805,1.164957 -0.684151,1.621057c-0.4561,0.4561 -0.997719,0.68415 -1.621056,0.68415c-0.649943,0 -1.191562,-0.22805 -1.624858,-0.68415l-6.18396,-6.164956c-2.151273,1.489927 -4.547701,2.234891 -7.193083,2.234891c-1.717977,0 -3.359939,-0.332573 -4.931584,-1.00152c-1.567845,-0.665146 -2.919043,-1.567845 -4.053592,-2.702395c-1.13645,-1.13645 -2.039149,-2.487647 -2.704295,-4.057392c-0.668947,-1.567845 -1.003421,-3.211707 -1.003421,-4.929685c0,-1.717978 0.334474,-3.361839 1.003421,-4.931585c0.665146,-1.567845 1.567845,-2.920942 2.704295,-4.055492c1.134549,-1.13645 2.485747,-2.039148 4.053592,-2.704295c1.571645,-0.668947 3.213607,-1.00152 4.931584,-1.00152c1.717978,0 3.36374,0.332573 4.931585,1.00152c1.567845,0.665147 2.920943,1.567845 4.057393,2.704295c1.13455,1.13455 2.037248,2.487647 2.702395,4.055492c0.667046,1.569746 1.00152,3.213607 1.00152,4.931585c0,2.643482 -0.746864,5.039909 -2.234892,7.193083l6.183961,6.18396z"/>
    </g>
   </g>
  </g>
 </g>
</svg>