<svg width="30" height="30" xmlns="http://www.w3.org/2000/svg">
 <!-- Generator: Sketch 46.2 (44496) - http://www.bohemiancoding.com/sketch -->
 <title>Icon / Facebook</title>
 <desc>Created with Sketch.</desc>
 <defs>
  <linearGradient id="linearGradient-1" y2="100%" x2="50%" y1="0%" x1="50%">
   <stop offset="0%" stop-color="#6387D3"/>
   <stop offset="100%" stop-color="#2D4A86"/>
  </linearGradient>
 </defs>
 <g>
  <title>background</title>
  <rect fill="none" id="canvas_background" height="402" width="582" y="-1" x="-1"/>
 </g>
 <g>
  <title>Layer 1</title>
  <g fill-rule="evenodd" fill="none" id="Page-1">
   <g id="Icon-/-Facebook">
    <g id="Facebook">
     <path fill="url(#linearGradient-1)" id="App-Icon-Shape" d="m22.85156,0c4.33594,0 7.14844,2.8125 7.14844,7.14844l0,15.70312c0,4.33594 -2.8125,7.14844 -7.14844,7.14844l-15.70312,0c-4.33594,0 -7.14844,-2.8125 -7.14844,-7.14844l0,-15.70312c0,-4.33594 2.8125,-7.14844 7.14844,-7.14844l15.70312,0z"/>
     <path fill="#FFFFFF" id="Icon" d="m15.69298,29.85162l0,-11.61977l-3.77487,0l0,-4.17851l3.77487,0l0,-3.06397c0,0 -0.27154,-6.36875 5.23996,-6.36875l4.45831,0l0,4.2573l-2.778,0c0,0 -2.0445,-0.11094 -2.06675,1.99916l0,3.17626l4.49436,0l-0.64823,4.17851l-3.89063,0l0,11.76815l-4.80902,0l0,-0.14838z"/>
    </g>
   </g>
  </g>
 </g>
</svg>