<svg class="occlss-head-logo" width="196" height="66" xmlns="http://www.w3.org/2000/svg">
    <title>Oxfordshire County Council logo</title>
    <style>
        .occlss-head-logo__path { 
            fill: #ffffff;
        }
    </style>
    <path class="occlss-head-logo__path" d="M30.5 14.3c-10.4 0-18.7 8.3-18.7 18.6s8.4 18.7 18.7 18.7c10.4 0 18.8-8.4 18.8-18.7 0-5.1-2.1-9.9-5.5-13.1-3.4-3.4-8.2-5.5-13.3-5.5zm0 36.4c-1.1.1-2.1 0-3.1-.1-.1-.2.1-.5 0-.7 0-.1 1 .1 1.1.4s-.1-1.1.1-1.3c.2.2.7.7 1.1.7.2 0 .4-.5.5-.9.1-.1.1-.1.2-.4.4.2.9.6 1 1.2.6-.4 1.5-.7 1.3-.7.1.1.1.2 0 1.1.4-.1 1-.4 1.2-.1.1.2.1.4.1.5-1.1.2-2.3.3-3.5.3zm13.8-6.3c0-.2-.4-.2-.1-.7.1-.4.6.4.6-.4.1-.5-.1-1.1-.1-1.6-.1-.7.7-1.2.2-1.9-.2-.1-.7.2-1.2.1.4-.2.6-.6.7-1.2.2-1.1 1.5-.4 1.5.2.6-.4.6-.6.6-1.1-.1-.4-.1-.5-.6-.6.5-.6.7-1.1.2-1.8-.1-.1-.1-.4-.2-.4-.2-.1-.7-.1-.9-.2s-.1-.6 0-.7c.2-.6 1.2-1.2 1.8-.5s-1.1 2.7 1 3.2v-.1c.1-.2-.4-.5-.1-1 .1-.1.2-.5.1-.6.1-.1.5-.4.2-.6s-.6-.2-.6-.4c-.1-.2 0-.6.1-.7.1-.5.2-.7-.1-1.2-.2-.4-.4-.2-.7-.2.1-.2-.1-1-.6-.7-.4.2-.6.7-1.1 1.1-.4.4-.6.6-.7 1-.1.4 0 .6.1 1.1-.2.5-.6.4-.4 1.2 1.1-.1 2 .1 1.7 1.8-.1.1-1 .6-1.2.5.1-.2.1-.7-.1-1.1-1-1.2-1.5-1.8-.7-3.3.1-.4.4-.6.6-1.1.4-.6-2.4-2.2-2.7-2.2-.2-.1-.7-.2-1.1-.2-.1 0-.2.1-.4.2-.9.4-1.6 1.1-1.8 2.2-.1.2 1.2-.9 1.2-.9.7-.4 1.5-.7 2.3.2-.1.2-.2.2-.4.4-.6-.4-.9-.6-1.6-.4-.2.1-.4.2-.5.4-.6.4-1 .9-1.5 1.3l-.1.1c-.4.2-.6.1-.9.4-.1.5.2.6.2 1 .1.5-.2.9-.2 1.3.1.2.2.7.2 1-.1.6-.4 1-.1 1.6.4-.1.7-.4 1-.6.9-.7-.1-.7-.1-1.3-.1-.4.1-.2.6-.4.1-.7-.5-1-.1-1.6v-.1c.1 0 .1-.1.1-.1.1-.2.5-.1.7-.2l.8-.4c-.1 0-.1.1-.2.1-.1.1-.2.1-.4.2s-.1.2-.1.4c.2.6.5.7 1 1l.4.4c.2.1.4.1.6.2.1.1.4.4.4.6.1.7-.2 2.2.5 3.2.1.1.4.2.5.4.2.1.7.1 1 .5.1.2 0 .5.1 1 0 .4.2.7.1 1.2-.1.6-.7.9-.6 1.7 0 .1.2.2.1.2l.2.2-.2.2c-.9.9-1.8 1.6-2.8 2.3.1-.4.2-1 .2-1.2-.4-.1-1-.1-1.5-.1-.1 0 .4-1 .2-1.2-.6-.2-1.8 0-1.8.1.1-.2.2-1.1.1-1.5l-.6.2-.4.1c-.9.2-2 .5-2.7 1.6-.4.6-.6.7 0 .4.6-.4 1.1-.2 2.1-.4 0 .7-.2 1-.5 1.6.7-.4 1-.5 2.2-.7.1 1.3-.2 1.2-.5 1.6 1.7-.5 2.2-.7 1.6.5-.9.5-1.8.9-2.8 1.2-.2-.1-.4-.2-.7-.4.1-.2 0-.4-.1-.6 0-.2.1-.2.1-.4-.2.2-.9.2-1.4.3 0-.1 0-.4-.1-.5 0-.4-.2-.5-.2-.9-.5.1-1.2.4-1.7.6-.1-.5-.9-.7-1.2-1.1-.4.4-.6.7-1 1.1-.4-.2-.7-.2-1.3-.5l-.5-.3c.1.6-.2 1-.2 1.5-.6-.2-1.1-.5-1.7-.4 0 .1.1.2.1.4.1.4-.1.7 0 1l.1.1c-.4.1-.9.1-1.1.4-.9-.2-1.7-.6-2.6-1 0-.1-.1-.2-.1-.4-.1-.2-.1-.6-.1-.7.5-.1 1.1.7 1.8.6-.2-.4-.2-1.1-.2-1.6.6-.1 1.3.6 2.2.4-.1-.6-.4-1.3-.4-1.3.5 0 1.2.5 1.5.4.2 0 .5-.1 0-.4-.5-1.5-1.8-1-2.8-1.7-.2.4-.4 1-.4 1.5-.2-.1-.5-.2-.7-.2-.4 0-.7.2-1.1-.1-.1.4-.1 1 0 1.3-.2 0-.6-.1-1-.1-.2.1-.6.1-.7 0 0 .5.1.9.2 1.2-1-.7-2-1.5-2.8-2.3.1-.1.2-.4.4-.5.3-.4.6-1.1.5-1.7-.2-.4-.9-.9-1.1-.9-.1-.1-.2 0-.4-.1-.2-.2-.2-.9-.2-1.3.6-.1 1.1-.1 1.1-.7.1-.1.2-.1.4-.1.5-.2.6-1.3.1-1.7.1-.2.1-.4.1-.6-.1-.2-.1-.4-.1-.5.1-.6 1.8-1.5 1.6.1-.1.6-1 1.3-.9 1.6.1.1.4.2.5.2.9.4 1 .5 1.1 1 .2.4.4-.4.6-.5.5-.1.1.6.2.7 0 .4.9.9 1.2 1 .1-.2.1-.7.1-1 .1-.1.4.7.5.7.2-.6.1-1.8-.7-1.9-.5-.1-.7.1-1.2-.1-.2 0-.6-.2-.9-.4 0-.5.5-.6.6-1.1.1-.2-.1-.6-.1-.9.2-1 .2-1.5-1.1-1.1-.2.1-.2.1-.5.1 0-.2 1.3-.7 1.6-1 .2-.2.6-1 .2-1.3-.5-.4-2.3-.6-2.9-.1-.4.1-.6 1.6-.7 1.9-.1 0-.2.1-.2.2v.4l-.2.2c-.2 1-.4 1.8-.2 2.8.1.2.1.5 0 .2-1.6-2.1 1.3-4.6.9-6.9-.1-.2-.1-.5-.2-.7-.2-.2.1-.6.4-.1.1.2.1.6.2.7 0 .1.1.2.2.2.6.1 1 0 1.2-.2.1-.1.2-.2.4-.2s.2.2.2.5v.4c.2 0 .6-.1 1-.1.2 0 1 .5 1.1.7.1.1.1.2 0 .4s-.7 1.2-.5 1.3c.1 0 .6.1.6.2-.1.4-.6.2-.7.6-.1.4.5 1.3.7 1.5.1-.2.1-.6.2-.9.1.2.1.6.1 1 .4 0 .7-.7.7-1.1v-.4c-.2-.2-.2-.4-.2-.7 0-.6.4-2.1.1-2.4-.1-.1-.4-.2-.6-.4-.1-.2-.2-.2-.4-.2-.2-.1-.4-.5-.7-.6-.1-.1-.2-.1-.2-.1 0-.1-.1-.4-.2-.5-1-1-1.6-.2-2.4 0-.3-.3-.3-.5 0-.7.2-.1 1.2-.7 1.3-.7s.2.1.2.1c.7.2 1 .7 1.5 1.2.2.1.4.4.6.4 0 0 .5-.1.5-.2 0-.3-.4-.6-.4-.8-.1-.5-.1-.7-.4-1.1-.4-.9-1.1-.9-1.5-.7-1.5.5-2.7 1.1-4.2 2.4-.2.2.4.7.4 1.1v.2c.1 1-.2 1.7-.5 2.4-.1.5-.1 1.1-.4 1.5-.1.2-.5.5-.9.6-2.2.4-.6-2.6-.2-3.2.1-.4.4-.9.5-1.2v-.1c.4-1.5-.4-2.4-1.3-3-.5-.4-.9-.5-1.1-1.1-.2.4-.2.7-.2 1 0 1 .5 1.5.9 2.1-.7-.1-1.2.5-1.3 1.3v.2c.2-.1.5-.1.9-.2h.1c.2 0 .5 0 .6.2-.1 0 .1.2.1.4-.1 1.3-1.2 2.2-1.1 3.5.1.9.9.7 1.1 1.2.2.2.1 1 .1 1.3.7-.1 1-1.1 1.5-1.5.1 0 .1.1.1.2.1.7.5 1 .7 1.6-.2.1-1 .2-1 .6-.2.2.4 1.5.4 1.8.1.2-.1.4 0 .7.1.2.2.2.6.2.1.2.1.6-.1.9-2.7-3-4.3-7.2-4.3-11.6 0-5 2-9.4 5.3-12.7 3.3-3.3 7.7-5.2 12.7-5.2S40 17 43.3 20.3c3.3 3.3 5.3 7.7 5.3 12.7 0 4.3-1.6 8.2-4.3 11.4zm-1.6-8.5c-1.2-1.3-.5-1.8-1-2.4-.2-.2-.2-.1-.6.1-.1.1 0 .1 0 .1.3-.7.3-.7.4-.7.5-.2.7-.6 1.1-1 .2-.4.4-.1.6.1-.2.2-.5.6-.6 1-.4.7-.2 1.6.2 2.3.4.7 1.1 1.5 1.1 2.4.1.5-.1 1.1-.2 1.5l-.2-.1c.4-1.3 0-2.4-.8-3.3z"/>
    <path class="occlss-head-logo__path" d="M26.9 26.9c-1.2.6-2.4.7-3.7.7-.7.1-1-.1-1.2-.6-.1-.2 0-.2.1-.1.2.1.4.5.7.6.1-1.3 1.1-2.2 1.8-3.2.2-.2.5-.4.5-.7.2-.6-.6-2.1-1-2.4-.2.1.2.6-.2.6l-.1-.1c.1-.2.1-.7-.1-.9-.5-.2-1.1-.1-1.6-.2-.9-.2-1.3-.7-1.7-1.1-.4.4-.5.9-.4 1.5-.7.1-1.7.4-2.2.7.5.5 1.1.7 2.1.7.1.5.6 1.1 1 .7.5-.6 2.2-1.1 2.8-.7.2.1-.2.5-.4.6-.5.9-2.6 3-2.1 4.1.1.2.5.6.5.7.1.4.1.5.6.9s3.7-.7 4.4-1.3c.2-.1.3-.5.2-.5zM36.8 41.3c.2-.1.6-.1 1-.1.5-.2.2-.4.5-.9.2.1.4.1.5.4.2 0 .5-.2.7-.1.6 0 1.3.7 2 .5.1 0 .1-.1.1-.2.4-1.5-1.5-1.7-1.1-3.3.1-.2.2-.5.4-.6-.4-.1-1-.4-1.5-.2-.4.1-.5 1.5-.4 1.8.1.4.5.6.7.9.1.1.2.4.2.6-.6 0-2.4-.5-2.9-.1-.1.1-.2.7-.2.9.1-.2 0 .2 0 .4zM35 37.6c-.6-.1-1.5-.1-2.2 0v.4s.2-.1.4-.1l-.2.5.2.1c.1-.1.1-.7.1-.9.1 0 .2-.1.2-.1v1.2h.5l-.1-1.2c.1.1.2.1.4.1 0 .2.1.6.2.9l.2-.1c-.1-.1-.1-.4-.2-.6l.2.1.3-.3zM32.9 36.6l-.1.5c.7.1 1.6.1 2.3.1l-.1-.4h-.4c0-.2.1-.5.1-.7.2 0 .4-.1.5-.2 0 0-.2-.1-.4-.1.2 0 .4-.1.5-.4H35c.2-.1.5-.1.5-.2-.1-.2-.1-.2-.3-.2.1 0 .4-.1.4-.2h-.3c.2-.1.3-.1.3-.3-.1 0-.1 0-.2.1.1-.1.1-.4.1-.5-.2 0-.3.1-.3.3 0 0-.1-.1-.2-.1-.1.3 0 .4 0 .5-.1-.1-.1 0-.2-.1-.1.1 0 .4.1.5 0-.2-.2-.2-.2-.2-.1.2-.1.4 0 .5 0 0-.1-.1-.2-.1-.1.2-.1.4.1.6-.1-.1-.2-.1-.2-.1 0 .1 0 .4.2.4-.1.2-.1.6-.2.9h-.2L34 36c.2 0 .2-.2.4-.5-.1 0-.2 0-.4.1.2-.1.4-.2.4-.5-.2 0-.4.1-.4.1.1-.1.4-.2.4-.6h-.2c.1 0 .2-.1.2-.4h-.2c.1-.1.1-.1 0-.3-.1 0-.2.1-.2.2 0-.1.1-.4-.1-.5-.2.2-.2.2-.1.5 0 .1-.2-.1-.2-.1-.1.1.1.5.1.5h-.2c.1.2.2.2.2.4-.1-.1-.2 0-.2-.1 0 .2.1.4.2.5-.1 0-.2-.1-.2-.1.1.2.1.3.2.4h-.2c.1.1.1.5.4.5l-.1 1.1h-.2s-.1-.8-.2-.8c.1.1.1.3.1.5l-.6-.3zM33.2 36.2z"/>
    <path class="occlss-head-logo__path" d="M32.2 34.6c0 .1.1.2.3.2l.1.1c-.1 0-.1.1-.2.1.1.2.2.4.5.4h-.4c.1.2.2.3.3.3h-.2c.2.1.2.4.5.2 0 .1.1.2.1.2.2-.1.2-.2.2-.5-.1 0-.1 0-.2.1v-.5l-.1.1c.1-.1 0-.3 0-.5-.1.1-.1 0-.2.1.1-.1.2-.2.1-.5-.1.1-.1.1-.2.1.1-.1.1-.1 0-.4l-.1.1c0-.1-.1-.2-.2-.4-.1.2-.1.5.1.6l-.1-.1c-.2.3-.2.3-.3.3zM25.9 21.5c.1.4-.1.7.1 1.1 0 .1.5.6.7.6.1.1.4.2.4.2.1 0 .2-.7.1-1 0-.4-.2-.2-.5-.4s.1-.2.2-.2c.1-.1-.5-.7-.2-.7h.6c-.1.4.1.7.5.9.1.1.4 0 .4.1.1.5-.6 1.5-.6 1.6-.1.2-.1.6.1 1 .1.2.5-.1.6-.2.4-.5.2-.5.1-1 .2-.2.4.1.5-.2.1-.6.4-1.6.6-1.8h.1c-.1.1-.4.7-.2.9.5.1 1.5-.6 1.8-.2l.2.4c-.5.4-1 .6-1.1.9-.1.1-.1.1-.1.2 0 0 0 .1-.1.1-.1.2-.1.6.1.7s.9-.4.9-.5c0-.4-.1-.2-.1-.5 0-.1.1-.2.2-.2 0 .2 0 .4.1.2.2-.2.6-.5.9-.9.5.2.7-.4.5-.5-.4-.1-.9-.6-1.1-1l.1-.1c.1.2.2.9 1.2 1 .1.5-.1 1.1-.1 1.6 0 .2-.1.2-.2.4 0 0 0 .1-.1.1h.2l-.1.6c.5-.2 1.1-.4.8-.7l-.1-.2c-.1-.2.1-.2.1-.2.2.1.1-.4.2-.7.1-.1.1-.1.1-.2.3-.6.3-.5.3-.7 0-.1.1-.1.2-.2s-.2-.4-.5-.6c.4-.2.5-1.1.1-2.1h.2c.2.2.4.5.4 1 .1.6-.5 1.3.2 1.3.1 0 .2-.1.2-.2.4-.1.4-.2.5-.5.4-1.3-.2-2.4-1.8-2.3h-.7c-.6.1-.6 0-1.1.2-.2.1-1 0-1.5.4-.1 0-.1.1-.2.1-.5-.1-1.5-.1-2-.1-.2.1-.7.1-.7.1-.1.1-.1.7-.2 1l-1.1.4c-.1.1-.2.5 0 .6v.4zM27.8 17.5c.2.1.5.2.7.1.4-.2.6-.7.9-.6.1-.1-.7-.9-1-.7-.2-.1-.5.1-.6.2-.4.1-.6.2-.7.2l-.1.1c0 .1.4.6.4.6 0 .3.4.1.4.1zm.3-1c.1-.1.2.1.4.1l-.4.2s-.2 0-.2-.2c.1-.1.2-.1.2-.1zM17.8 24.2c.2-.1.6.1.7.1.1-.4-.1-1.3-.7-1.2-.1 0 .1.2.1.4.1.1 0 .4-.1.7zM30.3 40c-.3-.1-.6 0-.7.1-.2 0-.2-.2-.4-.1-.4.4.1.5-.1.6l-.3.4c-.1-.2-.1-.6 0-.6.2 0 .5-.5.5-.7-.1-.4-.2.1-.5.1 0-.4.5-.4.5-.9 0-.4-.4-.2-.5 0l.1-.4c-.1-.1-.1-.2-.2-.4-.5-.4-.7.1-.7.4l.1.2c-.1-.2-.5-.4-.4.2.1.2.4.2.5.6-.1.1-.4-.1-.5-.1-.1.1.2.9.5.7.1.1 0 .6 0 .6-.1 0-.2-.2-.5-.2.1-.2.4-.2.1-.5-.1-.2-.2-.1-.4-.1s-.1-.1-.2-.2-.2 0-.5 0c0 .1 0 .2.1.4 0 .1.2.2.2.4-.1.1-.2.2-.1.4.6.4.5-.2.6 0l.3.3c-.2.3-.5.3-.5.3-.1-.2-.4-.2-.6-.2-.2.1.1.2.1.5-.1-.2-.4-.4-.6-.2-.5.2.4.4-.1.4-.4 0-.5.4-.2.4.1.1.5.1.6-.1 0 0 0 .5.1.4.4-.1.4-.5.5-.5-.1.1.1.4.1.4.2-.1.2-.4.4-.6.1 0 .1-.1.2-.1.1.5.1.6-.4.9l-.2.2c0 .2.4.1.4.1.2-.1.4-.1.2.1-.2.4.2.5.4 1 .1-.2.7-.6.5-.9l-.1-.2c.1-.1.4.1.6 0 .4 0-.2-.2-.4-.5-.1-.1-.1-.5-.1-.7.1 0 .2.1.4.1 0 .2.1.4.4.6.1.1.1-.2.1-.4 0 .2.2.5.4.6s.1-.1.2-.2c.2.1.2.1.5 0 .4-.1-.1-.6-.4-.5 0-.1.1-.4 0-.4s-.5.1-.6.2c0-.1.1-.4 0-.4-.2 0-.4.1-.5.2-.1 0-.5 0-.5-.1.1-.2.4-.2.5-.5.1.1.1.2.2.2h.2c.4-.1.1-.4.1-.5.5-.2.5-.3.5-.6.1-.1.1-.2.1-.2zM29.2 32.8c-.4-.5-1.8-2.2-2.3-1.6-.1.1-.1.2-.2.2.4.2 1 .6 1.6 1.5.1.5.5.9.7 1.3.2-.5.7-1 1.2-1.3.5-.5 1-.9 1.5-1.1.2-.1 1.1-.4 1.1-.6.1-.2-1.1-1.8-1.2-1.8l-5.7.4c1.5.7 2.3 1.3 3.2 2.2.1-.1.2-.2.5-.6-.2-.4-.7-.7-1.6-1.3 1.2.2 2 .5 3.4.1.1.1.5.7.5.7-1.1.5-1.9 1.1-2.7 1.9zM40.9 28.2c0 .5-.1.7-.2 1 1.3.4 3.2 1.3 4 2.6.4-.4.5-.4.7-.5-.5-1.5-3.1-3-4.5-3.1zM30.2 27c-.2-.1-.4-.1-.6-.1s-2.3.1-2.3.1c-.1.1-.1.2-.1.4-.1.2-.4.4-.5.7.7 0 1.1.2 1.8.2.4 0 .6-.1.9-.2.1.1.1.1.1.2-.2.1-.5.2-.7.2-.9.1-1.5-.5-2.3-.2-.5.5-1 .9-1.6 1.3l6.5-.5c-.1-.2-.1-.2-.4-.5-.4-.3-.7-.9-.8-1.6z"/>
    <path class="occlss-head-logo__path" d="M32.6 23.9c-.3 0-.6-.1-.9-.1l-.1.7v.1c-.6-.1-1.1-.1-1.7 0l-.1-.7c-.4 0-.6.1-1 .1l.1.9c-.4 0-.7.1-1.1.2l-.4-.9c-.2.1-.4.1-.6.2.2.5.5 1.6.6 2.3 1.2-.5 5.3-.6 6.7-.1 0-.6.2-1.8.6-2.3-.2-.1-.4-.1-.7-.2l-.2.7c-.4-.1-.7-.2-1.1-.2v-.1c-.1 0-.2-.4-.1-.6zM27.3 18.2v.1c0 .1.1.2.1.5h.1c.9-.1 1.7-.1 2.6 0 .1-.2.1-.2.1-.5h-.1c-.5-.2-2.6-.2-2.8-.1zM45.3 29.2c-.2.2-.2.1-.4 0-.2-.2.1-.4.2-.7v-.4c-1 .1-2 0-2.8-.1l-.1.1c0 .1-.1.2 0 .1.2-.1 3.1 1.5 3.3 2.3.1.2.4-.5.5-.9.9-.2 1.5-1.1 1.5-1.9 0-.2-.4.7-.7.4.4-.5.6-1.3.2-1.9-.1.1-.1.2-.4.2.1-.7-.1-1.1-.5-1.3-.1.2 0 .4-.1.7-.1.2-.2.4-.4.6.9.7.1 2.2-.3 2.8zM28.3 16c.5-.2 1 .4 1 .5.2.1.4.4.4.6h-.4c-.5.1-.4.7-1.5.7-.1.2 0 .1.6.1.2-.1 1.5 0 1.5 0 .1 0 .1-.5.1-.5.2.2.4-.1.7-.2-.1-.1 0-.1-.1-.4s-.6 0-.4-.1c.1-.1.1-.5-.2-.6.1-.2-.1-.4-.4-.4-.5-.4-.6 0-.9-.1-.3-.2-.7.3-.4.4zM16.3 30.4c.4-.7 3.4-2.4 4-2.6-.1-.1-.2-.4-.6-.4-.2.1-.2.4-.6.5-.2 0-.6-.1-.7 0-.4.4-.7 1.1-1.6.9-.4-.2.1-.7-.2-1-.1-.1.1-.4.2-.2.4.6 0 .7.4.9.5.1.9-.7 1.2-.9s1 .2 1.1-.2c0-.2-.1-.4-.2-.6 0-.2.2-.5.2-.7.1-.4-.1-.2-.1-.4.5-.1.5-.7.5-1.1-.2.1-.5 0-.6 0-.2 0-.2.2-.4.2s-.1-.4-.4-.4h-.6c-.1-.1-.1-.1-.2-.1s-.1 0-.1.2c-.1.6.4.4.1.7-.1.1-.1.5-.4.5-.1 0-.5-.1-.6-.1 0-.5.4.1.6-.2.1-.1 0-.2-.1-.4 0-.2.1-.7 0-.7-.2.1-.4.2-.5.5-1-.1-.6.7-.9 1.5-.9 0-1.2.2-1.6.7.5.1.7.4 1.1.4 0 .7-.1 1.1.2 1.6.2-.1.2-.2.5-.1.5.3.3.8.3 1.5zm2.6-3.3c-.1 0-.1-.2-.1-.2.2 0 .2.2.1.2zm-.5-1.5c.1-.1.5 0 .5-.2.1.6-.2.7-.7.6-.1-.1-.1-.2.2-.4zm0 .9c.1 0-.1.4-.1.4-.4.5-1.1-.1-.4.9.1.2-.4.2-.4.2-.1-.4-.1-.6-.1-1 .1-.1.7-.4 1-.5zm-1.6-.3c.2.1.5-.1.1.5-.1.1-.4 0-.7 0 .1-.2.1-.5.6-.5z"/>
    <path class="occlss-head-logo__path" d="M43.1 24.8c.1.1.2.1.2.2-.6-.1-.5.1-1 .5-.2.1-.6.2-1 .4l.1.1c.1.1 1-.1 1.3-.2.1-.1.2-.2.6-.2.4.1.2.2.9.6 0 0 .1 0 .2.1-.2 0-.7-.1-.9-.1l-.1.1c-.2.1-.5 0-.7-.1-.1.1-.4.2-.5.2-.4.1-.7.2-1.1 0 0-.2-.1-.4-.2-.4-.2-.1-.5.2-.6.4-.1.2 0 .2.1.4-.1.9.6.1 1 .1.1 0 .4.1.5.1.2.1-.2.1-.4.2-.2.2-.2.2-.6.4l-.1-.1c-.2.2.4.4 1.5.4.1 0 .4-.1.5-.2.2 0 .6.2.9.2.6.1 1.1-.2 1.2-.5.1-.1.1-.4.1-.4.1-.2.2-.2.4-.4.2-.5-.1-.7-.4-.9.2-.2.5-.7.2-1.2-.1-.5-.1-.5-.2 0-.1.2-.2.4-.2.6-.1.1-.1 0-.4-.1 0-.7-.4-1.2-.4-.7 0 .2-.1.5-.2.5-.3-.3-1-.3-.7 0zM15.7 26v-.7c-.6 0-.9-.1-1.2-.2 0 .7.4 1 1.2.9zM18 29.4c-.2.1-1.7 1.2-2 1.6.1.1.2.1.4.2.1.1.2.5.2.4 1.3-1.3 3.1-2.2 4.4-2.6 0 0-.4-.9-.4-1-1.5.6-2.5 1.2-2.6 1.4zM58.6 32.3c3.8 0 7-2.9 7-6.7 0-3.4-2.7-6.4-6.7-6.4-4-.1-7.2 2.9-7.2 6.6 0 3.9 3.2 6.5 6.9 6.5zm.1-11.2c2.7 0 4.2 2.4 4.2 4.9 0 2.6-1.6 4.4-4.2 4.4-2.7 0-4.3-2.4-4.3-4.7 0-2.5 1.7-4.6 4.3-4.6zM165.1 31.4l-.2.2.2.4 3.5.1.4-.5-.2-.2c-.6-.4-.6-.6-.6-1.9V26l3.8 5.1c1 1 2 .9 2.7 1h1.5l.2-.6c-.6-.2-1.8-1-2.9-2.3l-2.4-2.9c1.2-.4 2.6-1.7 2.6-3.4.1-1.8-1.3-3.4-4-3.3h-4.3l-.4.2.2.4c.6.2.6.6.6 2.2v7.1c-.2 1.2-.3 1.6-.7 1.9zm3.3-9.8c.2-.1.6-.2 1-.1 1.2.1 1.8.7 1.8 1.7 0 1.2-1.3 1.8-2.8 2.2v-3.8zM126.8 44.1c-.9.5-1.8.9-2.8.9-2 0-3.3-1.7-3.3-3.6 0-1.8 1.3-3 3.1-3 1 0 1.7.4 2.4.7l.5-.2v-1.6l-.2-.2c-.9-.2-1.7-.4-2.6-.4-2.8 0-5.4 1.9-5.4 5.1 0 3 2.2 5.1 5.9 5.1 1.2 0 2.1-.4 2.3-.6l.1-.2.7-1.5-.4-.4h-.3zM149.2 39c0-.6 0-1.5.5-1.6l.2-.4-.4-.4h-2.7l-.2.4.2.4c.5.1.4 1 .4 1.6v4.1c0 1.5-1.1 1.8-1.8 1.8-1.8 0-2.1-1.1-2.1-2.4v-3.6c0-.6-.1-1.5.4-1.6l.3-.3-.4-.4h-2.7l-.4.4.2.4c.6.1.5 1 .5 1.6v3.8c-.1 2.7 1.3 3.8 3.5 4 1.1-.1 2.2-.6 2.4-.9v.5l.2.2h2.1l.4-.4-.2-.2c-.6-.1-.5-1.1-.5-1.7V39zM151.6 31.4l-.2.4.5.4 3.4.1.5-.5-.4-.2c-.5-.2-.6-.6-.6-1.9v-7.2c-.1-1.5 0-1.9.7-2.2v-.4l-.2-.2h-3.4l-.2.2.1.4c.7.4.6.7.6 2.2v2.1h-6v-2.1c0-1.5.1-1.9.7-2.2l.1-.4-.4-.2h-3.5l-.2.2.1.4c.6.1.7.7.7 2.3v6.9c-.1 1.5-.1 1.7-.6 1.9l-.2.2.2.4h3.5l.4-.4-.4-.2c-.5-.1-.6-.6-.6-1.9v-3.3l6 .1v3.3c0 1.3-.2 1.4-.6 1.8zM133.8 36.3c-3.1 0-5.6 2.3-5.6 5.1 0 3 2.6 5.2 5.5 5.2 3.1 0 5.5-2.2 5.5-5.2 0-2.6-2.2-5.1-5.4-5.1zm-.1 8.8c-2 0-3.3-1.7-3.3-3.5 0-1.9 1.2-3.4 3.3-3.4 2.1 0 3.2 1.7 3.2 3.6s-1.1 3.3-3.2 3.3zM134.7 22.5c.1-1 1-1.3 2.1-1.3 1.2 0 2 .5 2.7 1l.6-.1.1-2.2-.5-.2c-1-.2-2-.4-2.8-.4-2.6-.1-5 1-5 3.4 0 4.3 6.4 3.6 6.2 6.2-.1 1.1-1.2 1.5-2.3 1.5-1.5 0-2.7-.5-3.8-1.5l-.6.4.6 2.2.2.1c1 .5 2.2.6 3.4.6 3.3 0 5.3-2.1 5.3-4 .1-3.7-6.2-3.4-6.2-5.7zM159 36.7l-.4.4.2.2c.6.4.6.6.6 1.5v4.4l-5-6.2-.2-.2H152l-.2.4.1.2c.6.4.5.6.5 1.5v5.8c0 .9 0 1-.5 1.3l-.1.2.2.4h2.6l.2-.4-.2-.2c-.6-.4-.6-1-.6-1.8V40l4.5 5.6c.6.7 1 1.1 2 1.5l.4-.4v-8.1c0-.7.2-.9.6-1.2l.2-.2-.4-.2-2.3-.3zM184.9 44.3v-.1c-.1.1-.9 1-2.2.9l-1.6-.1v-6c0-.6-.2-1.3.4-1.6l.1-.2v-.1l-.2-.2h-2.7l-.4.2v.1l.2.2c.6.2.4 1.3.4 1.6v5.4c0 .6.1 1.5-.5 1.6l-.1.2v.1l.2.4h5.7l.4-.2.6-1.8-.2-.4h-.1zM185.8 29.5l-.2-.5-.2.2c-1 .9-2 1.1-2.9 1l-2.1-.1v-3.8h1c1 0 1-.1 1.3.4l.2.1h.1l.2-.2v-2.1l-.4-.2-.5.1h-2.2v-2.8l1.5-.1c1.3.1 1.5.1 2 .6l.2.1.2-.2.1-2.1-.4-.4h-.4l-6.4-.1-.2.4v.1l.1.2c.7.5.6.7.7 2.2v7.1c-.1 1.5-.2 1.8-.6 1.9l-.2.2.4.4h7.7l1-2.4zM122.7 19.6h-4.6l-.2.2.2.5c.6.2.6.6.6 2.2v6.8c0 1.7-.1 1.9-.6 2.2l-.2.2.2.5h4.5c4.4 0 7.2-2.8 7.2-6.4 0-5.5-5.1-6.4-7.1-6.2zm-1.4 10.5v-8.5c3.2-.5 5.9.6 5.9 4.4-.2 3.3-3 4.6-5.9 4.1zM173.6 36.8l-.4.2v.1l.2.2c.6.2.5.9.5 1.5v5.5c0 .6.1 1.3-.5 1.5l-.2.2.4.5h2.7l.4-.5-.2-.2c-.5-.1-.2-.9-.4-1.6V39c0-.6-.1-1.5.4-1.6l.2-.2v-.1l-.2-.2h-2.9zM171.5 44.3c-.9.4-1.8.9-2.7.9-2.1 0-3.4-1.7-3.4-3.6 0-1.8 1.3-3 3.1-3 1 0 1.8.2 2.4.7l.5-.2v-1.6l-.2-.4c-.9-.2-1.7-.2-2.6-.2-2.8 0-5.4 1.9-5.3 5.1 0 2.9 2.1 5.1 5.7 5.1 1.2 0 2.2-.4 2.3-.6l.1-.2.7-1.5-.4-.4c-.1-.3-.2-.3-.2-.1zM161.6 29.5v-7.2c0-1.6.1-1.9.6-2.2l.2-.2-.5-.4-3.3-.1-.4.5.2.4c.6.1.6.6.6 2.1v7.2c-.1 1.3-.1 1.8-.6 1.9l-.2.2.4.4h3.4l.5-.4-.4-.2c-.5-.4-.5-.9-.5-2zM114.2 29.2l-2.4-3c1.2-.2 2.7-1.6 2.7-3.4.1-1.8-1.3-3.4-3.9-3.3h-4.4l-.2.2v.3c.6.2.6.7.6 2.2v7.1c-.1 1.3-.1 1.8-.6 1.9l-.4.5.2.4h3.5l.4-.4-.2-.2c-.6-.4-.5-.6-.6-1.9v-3.4l3.9 5.2c.9 1 1.8.9 2.6.9h1.3l.4-.6c-.6-.5-1.7-1.1-2.9-2.5zm-5.2-3.9v-3.8c.2-.2.6-.2 1-.2 1.3.1 1.8.7 1.8 1.7 0 1.4-1.3 1.9-2.8 2.3zM67.2 36.3c-3.1 0-5.6 2.3-5.6 5.1 0 3 2.6 5.2 5.5 5.2s5.4-2.2 5.4-5.2c.1-2.6-2.1-5.1-5.3-5.1zm-.1 8.8c-2 0-3.3-1.7-3.3-3.5 0-1.9 1.2-3.4 3.3-3.4s3.2 1.7 3.2 3.6-1.1 3.3-3.2 3.3zM77 32.1h2.2l.1-.6c-.2 0-.9-.1-1.8-1.6l-3.1-4.6 4-5.1-.6-.6-3.4-.1-.4.5.4.2c.7.1.5.5.1 1l-1.7 2.3-2.4-3.5c-.2-.4-.4-.5-1-.5h-2.2l-.1.6c.6.1 1.1.9 1.3 1.5l2.6 3.8-4.9 6.3.4.4h3.7l.4-.4-.2-.2c-.7-.1-.4-.7-.1-1.1l2.4-3.2 2.9 4.3c.3.5.7.6 1.4.6zM37.7 22.2c.2-.1.6-.1.6-.1.6-.1 1.8.9 2 .9.4-.1.7-.5.7-.7.9 0 1.3-.2 1.7-.7.2-.4.2-.4-.2-.6-.4-.2-1.3-.1-1.6-.4-.1-.1.1-.2 0-.4-.1-.4-.4-.6-1-.7-.2.4-.7 1-1.1 1.1-.2.1-.6 0-1 .1s-.6.1-.7.2c-.2.4-.1 1 0 1.1l-.1.1c-.2.1-.1-1.2-.5-.7-.1.1-.1.4-.2.6-.1.4-.4.7-.4 1.1-.1.2-.1.6 0 .9.1.2.2.4.4.6.7 1 1.5 1.9 2.2 2.8.2.2.5-.5.6-.6 0 .1.1.1.1.1 0 .6-.5.7-1 .9-1 .2-2.8.1-3.9-.4l-.4-.2c-.2-.1-.7-.1-1-.1-.5-.1-1.6-.2-2.2 0-.4.2.1.7.2 1 .1.5 1 1.2 1.6 1.1-.4 1.2.6 1.8 1.2 2.1.2.2.4.5.6.6.4.1.5-.4.6-.6.5.1 1 .2 1.5.5.6-.6 1.1-2.2.9-2.2-.1 0-.4 0-.5.1-.4.1-.2 1.7-1.2 1.1-.2-.2-.4-.9-.5-.9-.1-.1-.6-.2-.6-.1v-.1l-.1.1c.1.2.2 1.6-.1 1-.2-.4-.6-.5-.9-.7-.6-.4.4-1.5 0-1.6-.7 0-1.7-.5-2-1.1 1.7.1 2 .7 3.1 1.1 1.1.5 2.6.6 3.8.2.2-.1.6-.1.9-.2.2-.6.4-1.1.6-1.6.2-1-1.2-2.7-1.7-3.2-.3-.5-1-1.3-.4-1.5zM60 44.3c-.9.4-1.8.9-2.7.9-2.1 0-3.4-1.7-3.4-3.6 0-1.8 1.3-3 3.1-3 1 0 1.7.2 2.3.7l.5-.2v-1.6l-.3-.5c-.9-.2-1.7-.2-2.6-.2-2.9 0-5.4 1.9-5.4 5.1 0 2.9 2.1 5.1 5.7 5.1 1.2 0 2.2-.4 2.3-.6l.1-.2.7-1.5-.4-.4c.3-.2.1-.2.1 0zM82.5 39c.1-.6 0-1.5.4-1.6l.2-.4-.2-.2h-2.7l-.4.2v.1l.1.2c.5.1.5 1.1.5 1.6v4.3c0 1.5-1.1 1.7-1.8 1.8-1.8 0-2.1-1.1-2.1-2.4V39c0-.7-.1-1.5.4-1.7l.2-.2V37l-.4-.1h-2.6l-.1.2v.1l.2.2c.5.2.4 1.1.4 1.7v3.8c-.1 2.7 1.3 3.9 3.5 4 1.1 0 2.2-.5 2.4-.7v.1l.4.2h2l.2-.2v-.1L83 46c-.6-.1-.5-1-.5-1.7V39zM31.4 32.8H36v6.8c-.6 0-1.8 0-2.7-.5-.4-.2-.7-.7-1-1.3-.2-.7-.4-1.6-1-2.1-.5-.6-1.2-.6-1.8-.7-1-.2-1.3-.4-2-1.8v-.1c-.2-.6-1-1.1-1.6-1.1h-1.7v7.7c0 1.9 1 3.8 2.6 5v.1c1.1.7 2.4 1.6 3.8 2.1 1.3-.6 2.6-1.2 3.7-2.1 1.1-1 2-2.1 2.3-3.5h-.1c-.6-.1-3.4.1-4.5-.6-.5-.2-.9-1-1-1.2-.2-.7-.6-1.8-1-2.2-.6-.5-1.2-.5-2-.7-1-.2-1.7-1-2-1.8-.1-.2-.1-.4-.2-.5v1.9c.4.6 1 1 1.6 1.1.6.2 1.5.2 2 .7.3.3.7 1.3.9 2.1v.1c.1.4.5 1 1 1.2 1.1.7 3.5.6 4 .6-.2.6-.7 1.2-1.2 1.7-1 .7-2.3 1.7-3.7 2.2-1.3-.5-2.6-1.3-3.8-2.2-1.1-1-1.7-2.4-1.7-4v-6.8c.6 0 1 .1 1.2.2.2.2.4.5.5.9.2.9 1.1 1.6 2 1.8.6.2 1.3.2 1.8.7.4.5.7 1.5 1 2.2.1.4.6 1 1 1.2 1 .7 3.5.6 4 .6 0-.2.1-.6.1-.9V32h-4.3c-.4.3-.8.8-.8.8zM96.9 19.2c-4-.1-7.1 2.9-7.1 6.6 0 3.9 3.2 6.6 7 6.6s7-2.9 7-6.7c0-3.5-2.8-6.5-6.9-6.5zm-.1 11.2c-2.7 0-4.3-2.4-4.3-4.7 0-2.6 1.6-4.5 4.2-4.5 2.7 0 4.3 2.4 4.3 4.9.1 2.5-1.6 4.3-4.2 4.3zM84.1 29.5v-3.2h1.3c.6 0 .9.2 1 .2l.2.1.5-.2v-1.9l-.4-.2c-.2 0-.2.1-.6.1H84v-2.8c.6-.1 1.2-.1 1.8-.1.7 0 1.2.2 1.5.6.1.1.2.1.4.1l.4-.2v-2.3l-.4-.2-.2.1h-6.4l-.5.4.2.2c.7.2.6.9.6 2.2v7.1s.1 1.8-.6 1.9l-.2.4.2.4h3.5l.5-.4-.2-.2c-.6-.6-.5-.7-.5-2.1zM113.2 37.2l-.1-.5h-2.4l-.4.2v.1l.1.2c.5.1.4.6 0 1l-1.3 2.1-1.8-3c-.4-.7-1.1-.7-1.3-.7h-1.3l-.2.6c.4.1.7.6 1.2 1.3l2.2 3.6v2.2c0 .7 0 1.2-.4 1.5l-.1.5.2.4h2.8l.4-.4-.2-.2c-.6-.6-.6-.7-.6-1.2v-2.4l3.2-5.3zM102.9 36.8h-6.1l-.2-.2-.4.2-.5 1.7.4.5.2-.2c.5-.4.9-.5 1.5-.5h.9l-.1 6.1c0 .6.1 1.3-.2 1.5l-.4.2v.2l.4.4h2.8l.2-.4v-.1l-.2-.2c-.6-.5-.6-.6-.6-1.3v-6.2h1c.5 0 .6 0 1 .4l.2.2.4-.2.5-1.7-.2-.5c-.1-.1-.6.1-.6.1zM92.4 36.8l-.4.2v.1l.1.2c.6.4.6.6.6 1.5v4.4l-5-6.2-.1-.2h-2.2l-.2.2v.1l.2.2c.6.4.6.6.6 1.5v5.8c0 1-.1 1.1-.6 1.3l-.2.2.2.4H88l.2-.4V46h-.1c-.7-.5-.6-1-.6-1.7V40l4.5 5.6c.6.9 1 1.1 2 1.5l.5-.2v-8.1c0-.7.1-1 .6-1.2l.2-.2v-.1l-.2-.2h-2.7z"/>
</svg>