<svg width="20" height="13" xmlns="http://www.w3.org/2000/svg">
 <!-- Generator: Sketch 46.2 (44496) - http://www.bohemiancoding.com/sketch -->
 <title>angle-arrow-down-white</title>
 <desc>Created with Sketch.</desc>

 <g>
  <title>background</title>
  <rect fill="none" id="canvas_background" height="402" width="582" y="-1" x="-1"/>
 </g>
 <g>
  <title>Layer 1</title>
  <g fill-rule="evenodd" fill="none" id="Page-1">
   <g fill="#FFFFFF" fill-rule="nonzero" transform="rotate(180 10,6.500000000000001) translate(-10,-6.5) " id="angle-arrow-down-white">
    <path id="Shape" d="m28.798227,7.090255c-0.133507,-0.137648 -0.2873,-0.206255 -0.461168,-0.206255c-0.173376,0 -0.327099,0.068607 -0.460676,0.206255l-7.876348,8.102887l-7.875786,-8.102887c-0.133578,-0.137575 -0.2873,-0.206183 -0.460957,-0.206183c-0.173728,0 -0.32745,0.068608 -0.460957,0.206256l-1.001864,1.030915c-0.133788,0.137287 -0.200471,0.295445 -0.200471,0.474185c0,0.178596 0.066894,0.336754 0.200471,0.474113l9.338748,9.608348c0.133366,0.137432 0.287229,0.206111 0.460886,0.206111c0.173658,0 0.327099,-0.068607 0.460606,-0.206111l9.33945,-9.608348c0.133507,-0.137432 0.199839,-0.29559 0.199839,-0.474113c0,-0.17874 -0.066402,-0.336898 -0.19991,-0.474474l-1.001863,-1.030699z"/>
   </g>
  </g>
 </g>
</svg>