<svg width="21" height="15" xmlns="http://www.w3.org/2000/svg">
 <!-- Generator: Sketch 46.2 (44496) - http://www.bohemiancoding.com/sketch -->
 <title>checkbox-checked-icon</title>
 <desc>Created with Sketch.</desc>

 <g>
  <title>background</title>
  <rect fill="none" id="canvas_background" height="402" width="582" y="-1" x="-1"/>
 </g>
 <g>
  <g fill-rule="evenodd" fill="none" id="Page-1">
   <g fill="#525252" fill-rule="nonzero" id="checkbox-checked-icon">
    <path id="Shape" d="m20.09837,3.53079l-9.14796,9.14796l-1.76539,1.7654c-0.16049,0.16049 -0.48147,0.32098 -0.80246,0.32098c-0.32098,0 -0.64196,-0.16049 -0.80245,-0.32098l-1.76539,-1.7654l-4.49374,-4.49373c-0.16049,-0.16049 -0.32098,-0.48147 -0.32098,-0.80246c0,-0.32098 0.16049,-0.64196 0.32098,-0.80245l1.7654,-1.76539c0.16049,-0.16049 0.48147,-0.32098 0.80245,-0.32098c0.32098,0 0.64196,0.16049 0.80245,0.32098l3.69128,3.69128l8.18502,-8.18502c0.16049,-0.16049 0.48147,-0.32098 0.80245,-0.32098c0.32099,0 0.64197,0.16049 0.80246,0.32098l1.76539,1.7654c0.32098,0.16049 0.48148,0.32098 0.48148,0.64196c0,0.32098 -0.1605,0.64196 -0.32099,0.80245z"/>
   </g>
  </g>
 </g>
</svg>
