<svg xmlns="http://www.w3.org/2000/svg" width="32" height="32">
  <g fill="none" fill-rule="evenodd">
    <path fill="#417505" fill-rule="nonzero" d="M23.852 1C28.187 1 31 3.813 31 8.148v15.704C31 28.187 28.187 31 23.852 31H8.148C3.813 31 1 28.187 1 23.852V8.148C1 3.813 3.813 1 8.148 1h15.704z"/>
    <path fill="#FFF" fill-rule="nonzero" stroke="#FFF" d="M7.581 13.938v12.086h17.277V13.938z"/>
    <path fill="#FFF" d="M16.085 5.961l9.128 7.632H7.241z"/>
    <path stroke="#FFF" d="M16.09 6.617l-7.504 6.476h15.249z"/>
    <path fill="#FFF" d="M16.237 21.967l8.853-8.048H7.384z"/>
    <path stroke="#417505" d="M16.237 21.29l-7.56-6.871h15.119z"/>
    <path fill="#FFF" fill-rule="nonzero" d="M9.481 7.045h13.658v7.583l-1.38.753H10.634l-1.153-.614z"/>
    <path fill="#417505" fill-rule="nonzero" d="M19.244 17.636c.238.088.588.238 1.05.45-.996.995-2.306 1.493-3.933 1.493-1.658 0-2.985-.51-3.982-1.531-.998-1.02-1.496-2.362-1.496-4.025 0-1.69.505-3.075 1.515-4.158 1.01-1.082 2.331-1.624 3.963-1.624 1.57 0 2.834.47 3.792 1.407.959.937 1.438 2.189 1.438 3.753 0 .88-.232 1.628-.696 2.242-.463.614-1.076.92-1.837.92-.824 0-1.42-.18-1.788-.543-.44.404-.96.606-1.562.606-.554 0-1.002-.152-1.344-.455-.342-.303-.513-.71-.513-1.224 0-.652.28-1.15.84-1.492.559-.341 1.315-.512 2.269-.512-.078-.762-.384-1.143-.917-1.143-.544 0-.974.145-1.29.435l-.373-.769c.424-.316.942-.474 1.554-.474 1.44 0 2.16.826 2.16 2.479v1.857c.373.275.689.412.948.412.964 0 1.445-.787 1.445-2.362 0-1.197-.388-2.194-1.165-2.992s-1.764-1.197-2.96-1.197c-1.311 0-2.368.454-3.171 1.36-.803.907-1.205 2.065-1.205 3.474 0 1.383.398 2.497 1.193 3.341.795.844 1.856 1.267 3.182 1.267 1.197 0 2.158-.332 2.883-.995zm-2.284-2.152v-1.819h-.397c-1.01 0-1.515.415-1.515 1.244 0 .28.098.51.295.691.197.181.443.272.738.272.327 0 .62-.13.879-.388z"/>
  </g>
</svg>
