<?xml version="1.0" encoding="UTF-8"?>
<svg width="44px" height="31px" viewBox="0 0 44 31" version="1.1" xmlns="http://www.w3.org/2000/svg" xmlns:xlink="http://www.w3.org/1999/xlink">
    <title>path4156</title>
    <g id="Page-1" stroke="none" stroke-width="1" fill="none" fill-rule="evenodd">
        <g id="icon" fill="#FF0000" fill-rule="nonzero">
            <path d="M21.9863648,0 C21.9863648,0 8.23456253,0 4.78304332,0.902933435 C2.93498084,1.42278809 1.41324486,2.95482244 0.896873768,4.84273487 C7.10542736e-15,8.31757644 7.10542736e-15,15.5136877 7.10542736e-15,15.5136877 C7.10542736e-15,15.5136877 7.10542736e-15,22.7371167 0.896873768,26.157266 C1.41324486,28.0451528 2.9078028,29.5498262 4.78304332,30.0696935 C8.26174056,31 21.9863648,31 21.9863648,31 C21.9863648,31 35.76543,31 39.2168777,30.0970681 C41.0921317,29.5772117 42.5866592,28.0998932 43.0758555,26.1846406 C44,22.7371254 44,15.5410623 44,15.5410623 C44,15.5410623 44.0270768,8.31757644 43.0758555,4.84273487 C42.5866592,2.95482244 41.0921317,1.45018479 39.2168777,0.957682594 C35.76543,0 21.9863648,0 21.9863648,0 Z M18,9 L29,15.513409 L18,22 L18,9 L18,9 Z" id="path4156"></path>
        </g>
    </g>
</svg>